<?xml version="1.0" encoding="UTF-8" standalone="no"?>
<!-- Created with Inkscape (http://www.inkscape.org/) -->

<svg
   xmlns:dc="http://purl.org/dc/elements/1.1/"
   xmlns:cc="http://creativecommons.org/ns#"
   xmlns:rdf="http://www.w3.org/1999/02/22-rdf-syntax-ns#"
   xmlns:svg="http://www.w3.org/2000/svg"
   xmlns="http://www.w3.org/2000/svg"
   xmlns:sodipodi="http://sodipodi.sourceforge.net/DTD/sodipodi-0.dtd"
   xmlns:inkscape="http://www.inkscape.org/namespaces/inkscape"
   width="82"
   height="82"
   id="svg3662"
   version="1.1"
   inkscape:version="0.48+devel r"
   sodipodi:docname="ccs-logo-inverted.svg">
  <defs
     id="defs3664" />
  <sodipodi:namedview
     id="base"
     pagecolor="#d9d9d9"
     bordercolor="#666666"
     borderopacity="1.0"
     inkscape:pageopacity="0"
     inkscape:pageshadow="2"
     inkscape:zoom="9.9512195"
     inkscape:cx="41"
     inkscape:cy="41"
     inkscape:document-units="px"
     inkscape:current-layer="layer1"
     showgrid="false"
     fit-margin-top="0"
     fit-margin-left="0"
     fit-margin-right="0"
     fit-margin-bottom="0"
     inkscape:window-width="1920"
     inkscape:window-height="1033"
     inkscape:window-x="0"
     inkscape:window-y="25"
     inkscape:window-maximized="1"
     width="0px"
     height="0px" />
  <metadata
     id="metadata3667">
    <rdf:RDF>
      <cc:Work
         rdf:about="">
        <dc:format>image/svg+xml</dc:format>
        <dc:type
           rdf:resource="http://purl.org/dc/dcmitype/StillImage" />
        <dc:title></dc:title>
      </cc:Work>
    </rdf:RDF>
  </metadata>
  <g
     inkscape:label="Layer 1"
     inkscape:groupmode="layer"
     id="layer1"
     transform="translate(-281.85937,-719.9157)">
    <path
       style="color:#000000;color-interpolation:sRGB;color-interpolation-filters:linearRGB;fill:#ffffff;fill-opacity:1;fill-rule:evenodd;stroke:none;stroke-width:0.2;marker:none;visibility:visible;display:inline;overflow:visible;enable-background:accumulate;clip-rule:nonzero"
       d="m -1,-1 0,82 82,0 0,-82 -82,0 z M 43.84375,0 80,0 80,13.375 C 70.61009,7.1207 57.45549,2.56013 43.84375,0 z m -28.0625,0.1875 c 20.83177,0.10011 46.06324,5.52404 60.75,14.71875 1.25642,0.78664 2.42211,1.68169 3.46875,2.65625 l 0,20.71875 C 63.17107,52.28211 16.41829,47.07541 1.28125,41.4375 22.78407,52.60057 59.90977,55.3261 80,48.03125 L 80,80 0,80 0,30.15625 C 21.53521,47.0392 68.99442,47.89674 77.0625,36 69.92592,40.96671 29.73099,45.47932 2.21875,26.96875 1.43812,26.4435 0.69544,25.87536 0,25.25 L 0,10.78125 C 10.75031,3.92037 36.57646,2.55481 55.125,9.3125 45.25732,5.07887 33.74892,3.08 23.21875,2.96875 22.88193,2.96505 22.55368,2.9375 22.21875,2.9375 13.59173,2.94651 5.67928,4.2595 0,6.6875 L 0,1.34375 C 4.73315,0.54776 10.08867,0.1602 15.78125,0.1875 z M 34.75,8.3125 C 27.48017,8.3899 21.17606,9.78864 17.96875,12.75 c 8.60659,-5.74915 35.23042,-3.10388 47.625,4.65625 3.2608,2.0412 5.31703,5.59888 4.8125,7.71875 -3.08554,12.94946 -35.17066,9.75634 -44.5,6.28125 17.86089,9.2727 56.14381,7.51707 47.625,-8.53125 C 68.69172,13.75696 50.2122,8.3279 35.4375,8.3125 c -0.2341,0 -0.45513,-0.004 -0.6875,0 z m 2.9375,4.84375 c -9.11962,0.0093 -16.35424,3.36444 -12.3125,9 7.11394,9.91872 32.14478,11.01196 36.03125,5.28125 -3.08571,2.14741 -20.47881,4.09793 -32.375,-3.90625 -1.94685,-1.30971 -3.37816,-3.4881 -2.9375,-4.75 1.67516,-4.79578 16.05793,-6.42809 25.8125,-2.875 -4.26672,-1.83018 -9.22804,-2.702 -13.78125,-2.75 l -0.4375,0 z M 12.5625,58.625 c -0.98263,0 -1.93175,0.22252 -2.84375,0.625 -0.89972,0.39099 -1.67617,0.94522 -2.375,1.65625 -0.69866,0.71052 -1.27327,1.59059 -1.6875,2.65625 -0.41486,1.0657 -0.625,2.21364 -0.625,3.46875 0,2.3921 0.63185,4.30561 1.875,5.75 1.25496,1.44504 3.00077,2.1875 5.25,2.1875 0.79321,0 1.50925,-0.09201 2.125,-0.28125 0.6274,-0.17767 1.27439,-0.56816 1.9375,-1.125 0.67475,-0.55685 1.29479,-1.29132 1.875,-2.25 -0.12979,-0.29626 -0.37149,-0.48395 -0.75,-0.53125 -0.55676,0.80512 -1.24951,1.44478 -2.03125,1.90625 -0.78173,0.44999 -1.55038,0.6875 -2.34375,0.6875 -1.40913,0 -2.58801,-0.68525 -3.5,-2 C 8.56903,70.0486 8.125,68.35746 8.125,66.25 c 0,-1.95389 0.39413,-3.51973 1.1875,-4.65625 0.80502,-1.14874 1.83099,-1.71875 3.0625,-1.71875 0.50941,0 0.93766,0.08402 1.28125,0.25 0.34359,0.1536 0.58419,0.39905 0.75,0.71875 0.17763,0.30792 0.3037,0.583 0.375,0.84375 0.07079,0.24888 0.1403,0.55828 0.1875,0.9375 0.09471,0.85246 0.53077,1.28125 1.3125,1.28125 0.42587,0 0.83227,-0.13389 1.1875,-0.40625 C 17.82398,63.21598 18,62.8293 18,62.34375 18,61.32539 17.50224,60.4408 16.53125,59.71875 15.56026,58.98428 14.23215,58.625 12.5625,58.625 z m 15.0625,0 c -0.98279,0 -1.93175,0.22252 -2.84375,0.625 -0.89972,0.39099 -1.70821,0.94522 -2.40625,1.65625 -0.69882,0.71052 -1.24219,1.59059 -1.65625,2.65625 -0.41486,1.0657 -0.625,2.21364 -0.625,3.46875 0,2.3921 0.63185,4.30561 1.875,5.75 1.2548,1.44504 3.00014,2.1875 5.25,2.1875 0.79337,0 1.50924,-0.09201 2.125,-0.28125 0.62756,-0.17767 1.27439,-0.56816 1.9375,-1.125 0.67476,-0.55685 1.29479,-1.29132 1.875,-2.25 -0.13027,-0.29626 -0.40195,-0.48395 -0.78125,-0.53125 -0.55676,0.80512 -1.21842,1.44478 -2,1.90625 -0.7811,0.44999 -1.55038,0.6875 -2.34375,0.6875 -1.40913,0 -2.58864,-0.68525 -3.5,-2 -0.90035,-1.3264 -1.34375,-3.01754 -1.34375,-5.125 0,-1.95389 0.39412,-3.51973 1.1875,-4.65625 0.80501,-1.14874 1.83099,-1.71875 3.0625,-1.71875 0.50894,0 0.93844,0.08402 1.28125,0.25 0.34359,0.1536 0.58403,0.39905 0.75,0.71875 0.17762,0.30792 0.3044,0.583 0.375,0.84375 0.07127,0.24888 0.1402,0.55828 0.1875,0.9375 0.09455,0.85246 0.53077,1.28125 1.3125,1.28125 0.42587,0 0.80118,-0.13389 1.15625,-0.40625 0.35524,-0.28402 0.5625,-0.6707 0.5625,-1.15625 0,-1.01836 -0.49776,-1.90295 -1.46875,-2.625 C 30.62339,58.98428 29.29466,58.625 27.625,58.625 z m 13.3125,0 c -1.45649,0 -2.68542,0.39847 -3.65625,1.15625 -0.95935,0.75791 -1.4375,1.71031 -1.4375,2.90625 0,0.67548 0.07622,1.2571 0.21875,1.71875 0.14206,0.46164 0.41438,0.86345 0.78125,1.21875 0.37915,0.35526 0.7728,0.66962 1.1875,0.90625 0.41424,0.22484 0.99234,0.51193 1.75,0.84375 1.40912,0.62749 2.39239,1.20033 2.9375,1.78125 0.5445,0.56786 0.8125,1.25724 0.8125,2.0625 0,0.81741 -0.34485,1.47155 -1.03125,1.96875 -0.68717,0.49721 -1.39125,0.75 -2.125,0.75 -0.60412,0 -1.15178,-0.09927 -1.625,-0.3125 -0.47369,-0.22498 -0.8455,-0.45818 -1.09375,-0.71875 -0.65147,-0.65157 -1.08753,-1.80335 -1.3125,-3.4375 L 35.375,69.5 c 0.16593,2.09597 0.25,3.8225 0.25,5.125 0.37915,-0.07043 0.65449,-0.125 0.84375,-0.125 0.28459,0 0.52153,0.0145 0.6875,0.0625 1.00607,0.25993 2.09772,0.40625 3.28125,0.40625 0.37915,0 0.78061,-0.0419 1.21875,-0.125 0.44979,-0.08295 0.94817,-0.22478 1.46875,-0.4375 0.52105,-0.22549 0.97258,-0.51192 1.375,-0.84375 0.41423,-0.33135 0.75908,-0.76731 1.03125,-1.3125 0.28396,-0.5562 0.4375,-1.18851 0.4375,-1.875 0,-0.69891 -0.14572,-1.31815 -0.40625,-1.875 -0.26052,-0.5562 -0.65465,-1.0538 -1.1875,-1.46875 -0.52042,-0.41425 -1.05723,-0.76641 -1.625,-1.0625 -0.56856,-0.29567 -1.26466,-0.59834 -2.09375,-0.90625 -0.99427,-0.35526 -1.69499,-0.74199 -2.0625,-1.15625 -0.35523,-0.4266 -0.53125,-1.01552 -0.53125,-1.75 0,-1.63351 0.96811,-2.4375 2.875,-2.4375 0.22497,0 0.47783,0.04991 0.75,0.15625 0.2846,0.0946 0.59391,0.26337 0.9375,0.5 0.35524,0.23731 0.69213,0.61614 1,1.125 0.31952,0.4972 0.5405,1.08234 0.71875,1.78125 l 1,-0.03125 C 45.26084,61.77005 45.11512,60.52643 44.9375,59.53125 43.76561,58.9272 42.44133,58.625 40.9375,58.625 z"
       id="rect818"
       inkscape:connector-curvature="0"
       transform="translate(282.85937,720.9157)" />
  </g>
</svg>
