<?xml version="1.0" encoding="UTF-8" standalone="no"?>
<!-- Generator: Adobe Illustrator 15.0.1, SVG Export Plug-In . SVG Version: 6.00 Build 0)  -->

<svg
   xmlns:dc="http://purl.org/dc/elements/1.1/"
   xmlns:cc="http://creativecommons.org/ns#"
   xmlns:rdf="http://www.w3.org/1999/02/22-rdf-syntax-ns#"
   xmlns:svg="http://www.w3.org/2000/svg"
   xmlns="http://www.w3.org/2000/svg"
   xmlns:sodipodi="http://sodipodi.sourceforge.net/DTD/sodipodi-0.dtd"
   xmlns:inkscape="http://www.inkscape.org/namespaces/inkscape"
   version="1.1"
   x="0px"
   y="0px"
   width="112.21647"
   height="168.72417"
   viewBox="0 0 112.21647 168.72415"
   enable-background="new 0 0 841.89 595.28"
   xml:space="preserve"
   id="svg2"
   inkscape:version="0.48.3.1 r9886"
   sodipodi:docname="iis-logo-bw-notext.svg"><metadata
   id="metadata43"><rdf:RDF><cc:Work
       rdf:about=""><dc:format>image/svg+xml</dc:format><dc:type
         rdf:resource="http://purl.org/dc/dcmitype/StillImage" /><dc:title></dc:title></cc:Work></rdf:RDF></metadata><defs
   id="defs41"><inkscape:perspective
     sodipodi:type="inkscape:persp3d"
     inkscape:vp_x="0 : 297.64001 : 1"
     inkscape:vp_y="0 : 1000 : 0"
     inkscape:vp_z="841.89001 : 297.64001 : 1"
     inkscape:persp3d-origin="420.94501 : 198.42668 : 1"
     id="perspective45" /></defs><sodipodi:namedview
   pagecolor="#ffffff"
   bordercolor="#666666"
   borderopacity="1"
   objecttolerance="10"
   gridtolerance="10"
   guidetolerance="10"
   inkscape:pageopacity="0"
   inkscape:pageshadow="2"
   inkscape:window-width="1440"
   inkscape:window-height="900"
   id="namedview39"
   showgrid="false"
   inkscape:zoom="2.2426716"
   inkscape:cx="33.508718"
   inkscape:cy="65.884673"
   inkscape:window-x="0"
   inkscape:window-y="0"
   inkscape:window-maximized="1"
   inkscape:current-layer="text8"
   fit-margin-top="0"
   fit-margin-left="0"
   fit-margin-right="0"
   fit-margin-bottom="0" />
<g
   id="Layer_2"
   transform="translate(-276.52473,-225.80333)">
</g>
<g
   id="Layer_1"
   transform="translate(-276.52473,-225.80333)">
	<g
   id="g6">
		<g
   transform="translate(269.6543,393.7979)"
   style=""
   id="text8"><path
     d="m 20.793683,-82.992332 0,11.612847 -13.9232555,0 0,-11.612847 13.9232555,0 m 0,24.8673 0,58.125032 -13.9232555,0 0,-58.125032 13.9232555,0"
     style="font-size:124.51889801px;font-weight:bold;fill:#000000;fill-opacity:1;font-family:Eurostile"
     id="path3020" /><path
     d="m 48.518594,-82.992332 0,11.612847 -13.923256,0 0,-11.612847 13.923256,0 m 0,24.8673 0,58.125032 -13.923256,0 0,-58.125032 13.923256,0"
     style="font-size:124.51889801px;font-weight:bold;fill:#000000;fill-opacity:1;font-family:Eurostile"
     id="path3022" /><path
     d="m 110.83884,-42.134569 -13.619251,0 c -0.08111,-0.486359 -0.141909,-0.85116 -0.182401,-1.094404 -0.283776,-2.796765 -1.094445,-4.539704 -2.43201,-5.228821 -1.29711,-0.68902 -4.478986,-1.033554 -9.545638,-1.033604 -7.255518,5e-5 -10.883262,2.35099 -10.883244,7.052828 -1.8e-5,3.202186 0.62825,5.107258 1.884808,5.715223 1.29705,0.608039 5.63413,1.09444 13.011252,1.459206 9.930663,0.486437 16.395744,1.803774 19.395274,3.952016 2.99943,2.148304 4.49916,6.546184 4.49922,13.193653 -6e-5,7.093372 -2.00646,12.018187 -6.01922,14.7744586 C 102.9753,-0.62826855 95.821143,0.72960219 85.485142,0.72960292 75.554415,0.72960219 68.765061,-0.50666819 65.11706,-2.9792119 61.46904,-5.4517497 59.645034,-10.072564 59.645038,-16.841667 l 0,-1.459206 14.470458,0 c -0.202686,0.810687 -0.324286,1.459222 -0.364801,1.945608 -0.567487,5.147765 3.404792,7.7216391 11.916847,7.7216305 8.79573,8.6e-6 13.19361,-2.5535995 13.193653,-7.6608305 -4.3e-5,-4.904532 -2.756318,-7.356806 -8.268833,-7.35683 -12.443806,2.4e-5 -20.65183,-1.175446 -24.624098,-3.526414 -3.931756,-2.350913 -5.897629,-7.235194 -5.897624,-14.652858 -5e-6,-6.647445 1.803734,-11.146659 5.411222,-13.497654 3.607467,-2.350885 10.538688,-3.526356 20.793683,-3.526414 9.687465,5.8e-5 16.193085,1.134995 19.516875,3.404813 3.36423,2.269929 5.04637,6.708342 5.04642,13.315253"
     style="font-size:124.51889801px;font-weight:bold;fill:#000000;fill-opacity:1;font-family:Eurostile"
     id="path3024" /></g>



	</g>
	<g
   id="g14">
		<g
   id="g16">
			<path
   stroke-miterlimit="10"
   d="m 378.841,294.444 c -20.651,14.963 -50.929,0.877 -65.294,-9.177 -5.892,-4.122 -8.007,-23.65 -2.816,-28.628"
   id="path18"
   style="fill:none;stroke:#000000;stroke-width:3;stroke-miterlimit:10;stroke-opacity:1;stroke-dasharray:none"
   inkscape:connector-curvature="0"
   sodipodi:nodetypes="ccc" />
			<path
   stroke-miterlimit="10"
   d="m 373.902,234.256 c -7.42,-8.71 -12.588,-7.527 -25.408,-5.513 -11.541,1.814 -6.817,1.625 -36.638,26.991 l 67.252,10.403 c 0,10e-4 1.429,-24.093 -5.206,-31.881 z"
   id="path20"
   style="fill:none;stroke:#000000;stroke-width:3;stroke-miterlimit:10;stroke-opacity:1;stroke-dasharray:none"
   inkscape:connector-curvature="0" />
			<g
   id="g22"
   transform="translate(0,-2)">
				<path
   stroke-miterlimit="10"
   d="m 365.636,284.122 c 0,5.056 -4.135,8.575 -9.237,7.857 -5.104,-0.716 -9.239,-5.398 -9.239,-10.453 0,-5.059 4.136,-8.578 9.239,-7.86 5.102,0.717 9.237,5.398 9.237,10.456 z"
   id="path24"
   style="fill:none;stroke:#000000;stroke-width:2;stroke-miterlimit:10;stroke-dasharray:none"
   inkscape:connector-curvature="0" />
				<path
   d="m 350.586,284.013 c 0,-1.884 1.462,-3.203 3.269,-2.95 1.808,0.254 3.27,1.985 3.27,3.869 0,1.879 -1.462,3.203 -3.27,2.947 -1.807,-0.253 -3.269,-1.987 -3.269,-3.866 z"
   id="path26"
   inkscape:connector-curvature="0" />
				<path
   stroke-miterlimit="10"
   d="m 336.186,278.228 c 0,5.056 -4.138,8.576 -9.239,7.859 -5.101,-0.717 -9.237,-5.399 -9.237,-10.456 0,-5.058 4.136,-8.576 9.237,-7.859 5.101,0.717 9.239,5.398 9.239,10.456 z"
   id="path28"
   style="fill:none;stroke:#000000;stroke-width:2;stroke-miterlimit:10;stroke-dasharray:none"
   inkscape:connector-curvature="0" />
				<path
   d="m 321.136,278.118 c 0,-1.883 1.462,-3.203 3.269,-2.95 1.807,0.255 3.27,1.986 3.27,3.869 0,1.88 -1.463,3.205 -3.27,2.95 -1.807,-0.252 -3.269,-1.988 -3.269,-3.869 z"
   id="path30"
   inkscape:connector-curvature="0" />
			</g>
			<path
   stroke-miterlimit="10"
   d="M 378.841,266.21"
   id="path32"
   style="fill:#f7941e;stroke:#003264;stroke-miterlimit:10"
   inkscape:connector-curvature="0" />
			<path
   stroke-miterlimit="10"
   d="m 374.84,235.555 c 3.619,2.961 7.875,12.454 8.814,17.13 5.485,27.314 5.179,32.074 -4.418,41.467 -7.823,7.656 -5.516,-16.139 0,-27.632 0.001,0.001 2.728,-26.02 -4.396,-30.965"
   id="path34"
   style="fill:none;stroke:#000000;stroke-width:3;stroke-miterlimit:10;stroke-opacity:1;stroke-dasharray:none"
   inkscape:connector-curvature="0" />
		</g>
		<path
   stroke-miterlimit="10"
   d="m 335.069,329.688 h 40.068 c 0,0 -6.049,-24.426 -12.484,-23.996 -13.279,0.885 -15.543,-2.203 -16.37,1.744 -3.459,16.521 -11.214,22.252 -11.214,22.252 z"
   id="path36"
   style="fill:none;stroke:#000000;stroke-width:3;stroke-miterlimit:10;stroke-opacity:1;stroke-dasharray:none"
   inkscape:connector-curvature="0" />
	</g>
</g>
<g
   id="Layer_3"
   transform="translate(-276.52473,-225.80333)">
</g>
</svg>