<?xml version="1.0" encoding="UTF-8" standalone="no"?>
<!-- Created with Inkscape (http://www.inkscape.org/) -->

<svg
   xmlns:dc="http://purl.org/dc/elements/1.1/"
   xmlns:cc="http://creativecommons.org/ns#"
   xmlns:rdf="http://www.w3.org/1999/02/22-rdf-syntax-ns#"
   xmlns:svg="http://www.w3.org/2000/svg"
   xmlns="http://www.w3.org/2000/svg"
   xmlns:sodipodi="http://sodipodi.sourceforge.net/DTD/sodipodi-0.dtd"
   xmlns:inkscape="http://www.inkscape.org/namespaces/inkscape"
   width="2125.9841"
   height="1062.9921"
   id="svg6739"
   version="1.1"
   inkscape:version="0.48.2 r9819"
   sodipodi:docname="reprint.svg">
  <defs
     id="defs6741" />
  <sodipodi:namedview
     id="base"
     pagecolor="#ffffff"
     bordercolor="#666666"
     borderopacity="1.0"
     inkscape:pageopacity="0.0"
     inkscape:pageshadow="2"
     inkscape:zoom="1.4"
     inkscape:cx="422.12948"
     inkscape:cy="714.9284"
     inkscape:document-units="mm"
     inkscape:current-layer="layer1"
     showgrid="true"
     units="mm"
     inkscape:window-width="1920"
     inkscape:window-height="1116"
     inkscape:window-x="0"
     inkscape:window-y="26"
     inkscape:window-maximized="1"
     showguides="true"
     inkscape:guide-bbox="true">
    <inkscape:grid
       type="xygrid"
       id="grid6747"
       empspacing="5"
       visible="true"
       enabled="true"
       snapvisiblegridlinesonly="true"
       units="mm"
       spacingx="0.5mm"
       spacingy="0.5mm" />
    <sodipodi:guide
       orientation="1,0"
       position="1842.5197,974.40945"
       id="guide3141" />
    <sodipodi:guide
       orientation="0,1"
       position="62.007874,248.0315"
       id="guide3143" />
  </sodipodi:namedview>
  <metadata
     id="metadata6744">
    <rdf:RDF>
      <cc:Work
         rdf:about="">
        <dc:format>image/svg+xml</dc:format>
        <dc:type
           rdf:resource="http://purl.org/dc/dcmitype/StillImage" />
        <dc:title />
      </cc:Work>
    </rdf:RDF>
  </metadata>
  <g
     inkscape:label="Ebene 1"
     inkscape:groupmode="layer"
     id="layer1"
     transform="translate(0,10.629915)">
    <g
       id="g4245"
       transform="matrix(0,1,-1,0,878.80368,1871.4768)">
      <path
         transform="translate(-2016.4361,-325.92379)"
         d="m 325.98424,646.6535 c 0,2.93538 -2.37959,5.31496 -5.31496,5.31496 -2.93537,0 -5.31496,-2.37958 -5.31496,-5.31496 0,-2.93537 2.37959,-5.31496 5.31496,-5.31496 2.93537,0 5.31496,2.37959 5.31496,5.31496 z"
         sodipodi:ry="5.3149605"
         sodipodi:rx="5.3149605"
         sodipodi:cy="646.6535"
         sodipodi:cx="320.66928"
         id="path3087-40-4-5"
         style="fill:none;stroke:#ff0000;stroke-width:0.70866144;stroke-miterlimit:4;stroke-opacity:1;stroke-dasharray:none"
         sodipodi:type="arc" />
      <path
         transform="translate(-1698.1219,-325.92379)"
         d="m 325.98424,646.6535 c 0,2.93538 -2.37959,5.31496 -5.31496,5.31496 -2.93537,0 -5.31496,-2.37958 -5.31496,-5.31496 0,-2.93537 2.37959,-5.31496 5.31496,-5.31496 2.93537,0 5.31496,2.37959 5.31496,5.31496 z"
         sodipodi:ry="5.3149605"
         sodipodi:rx="5.3149605"
         sodipodi:cy="646.6535"
         sodipodi:cx="320.66928"
         id="path3087-1-5-2"
         style="fill:none;stroke:#ff0000;stroke-width:0.70866144;stroke-miterlimit:4;stroke-opacity:1;stroke-dasharray:none"
         sodipodi:type="arc" />
      <path
         transform="translate(-2176.1766,-334.79037)"
         d="m 325.98424,646.6535 c 0,2.93538 -2.37959,5.31496 -5.31496,5.31496 -2.93537,0 -5.31496,-2.37958 -5.31496,-5.31496 0,-2.93537 2.37959,-5.31496 5.31496,-5.31496 2.93537,0 5.31496,2.37959 5.31496,5.31496 z"
         sodipodi:ry="5.3149605"
         sodipodi:rx="5.3149605"
         sodipodi:cy="646.6535"
         sodipodi:cx="320.66928"
         id="path3087-6-4-0"
         style="fill:none;stroke:#ff0000;stroke-width:0.70866144;stroke-miterlimit:4;stroke-opacity:1;stroke-dasharray:none"
         sodipodi:type="arc" />
      <path
         transform="translate(-1538.3814,-334.49861)"
         d="m 325.98424,646.6535 c 0,2.93538 -2.37959,5.31496 -5.31496,5.31496 -2.93537,0 -5.31496,-2.37958 -5.31496,-5.31496 0,-2.93537 2.37959,-5.31496 5.31496,-5.31496 2.93537,0 5.31496,2.37959 5.31496,5.31496 z"
         sodipodi:ry="5.3149605"
         sodipodi:rx="5.3149605"
         sodipodi:cy="646.6535"
         sodipodi:cx="320.66928"
         id="path3087-8-7-4"
         style="fill:none;stroke:#ff0000;stroke-width:0.70866144;stroke-miterlimit:4;stroke-opacity:1;stroke-dasharray:none"
         sodipodi:type="arc" />
      <path
         style="fill:none;stroke:#ff0000;stroke-width:0.70866144;stroke-miterlimit:4;stroke-opacity:1;stroke-dasharray:none"
         d="m -1797.311,232.16411 c -42.5277,1.0553 -76.4657,35.1468 -75.9375,77.9376 l 0,17.7187 35.4375,0 0,-17.7187 17.7188,0 0,17.7187 0,127.5313 c 0.018,7.1019 0.018,21.2752 0,28.375 l 0.031,0 0,14.1562 24.7899,0 0,-5.3149 14.1732,0 0,5.3149 3.5369,0 0,14.1875 -3.5369,-0.011 0,5.315 -14.1732,0 0,-5.315 -24.7899,0.011 0,14.125 c -0.013,7.1244 -0.013,21.2976 -0.031,28.375 l 0,127.59371 0,17.7188 -17.7187,0 0,-17.7188 -35.4375,0 0,106.2813 c 0,43.47319 34.4956,81.49999 77.9687,81.49999 l 517.3125,0 c 43.4731,0 77.9687,-38.0268 77.9687,-81.49999 l 0,-106.2813 -35.4375,0 0,17.7188 -17.7187,0 0,-17.7188 0,-127.56241 c 0.01,-7.1087 0.01,-21.2819 0,-28.375 l 0,-14.1563 -24.7936,-0.011 0,5.315 -14.1732,0 0,-5.315 -3.5332,0.011 0,-14.1875 3.5332,0 0,-5.3149 14.1732,0 0,5.3149 24.7936,0 0,-14.1562 c 0.01,-7.0998 0.01,-21.2731 0,-28.375 l 0,-127.5313 0,-17.7187 17.7187,0 0,17.7187 35.4375,0 0,-17.7187 c 0,-43.474 -34.4956,-77.9376 -77.9687,-77.9376 l -517.3125,0 c -0.6793,0 -1.3562,-0.016 -2.0312,0 z"
         id="rect4066-8-3"
         inkscape:connector-curvature="0"
         sodipodi:nodetypes="cccccccccccccccccccccccccccccssssccccccccccccccccccccccccccssscc" />
      <rect
         style="fill:none;stroke:#ff0000;stroke-width:0.70866144;stroke-miterlimit:4;stroke-opacity:1;stroke-dasharray:none"
         id="rect4158-4-5"
         width="70.866142"
         height="17.716536"
         x="-1642.9091"
         y="310.09973" />
      <rect
         style="fill:none;stroke:#ff0000;stroke-width:0.70866144;stroke-miterlimit:4;stroke-opacity:1;stroke-dasharray:none"
         id="rect4158-2-2-7"
         width="70.866142"
         height="17.716536"
         x="-1501.1768"
         y="310.09973" />
      <rect
         transform="matrix(0.96592583,0.25881905,-0.25881905,0.96592583,0,0)"
         style="fill:none;stroke:#ff0000;stroke-width:0.70866144;stroke-miterlimit:4;stroke-opacity:1;stroke-dasharray:none"
         id="rect4180-6-4"
         width="70.866142"
         height="17.716536"
         x="-1500.1001"
         y="1210.1996" />
      <rect
         transform="matrix(0.96592583,-0.25881905,0.25881905,0.96592583,0,0)"
         style="fill:none;stroke:#ff0000;stroke-width:0.70866144;stroke-miterlimit:4;stroke-opacity:1;stroke-dasharray:none"
         id="rect4180-9-0-3"
         width="70.866142"
         height="17.716536"
         x="-1785.7012"
         y="-163.84956" />
      <rect
         transform="matrix(0.96592583,0.25881905,-0.25881905,0.96592583,0,0)"
         style="fill:none;stroke:#ff0000;stroke-width:0.70866144;stroke-miterlimit:4;stroke-opacity:1;stroke-dasharray:none"
         id="rect4180-5-5-0"
         width="70.866142"
         height="17.716536"
         x="-1254.7522"
         y="631.55835" />
      <rect
         style="fill:none;stroke:#ff0000;stroke-width:0.70866144;stroke-miterlimit:4;stroke-opacity:1;stroke-dasharray:none"
         id="rect4180-2-4-1"
         width="70.866142"
         height="17.716536"
         x="-1539.9938"
         y="415.34705"
         transform="matrix(0.96592583,-0.25881905,0.25881905,0.96592583,0,0)" />
      <path
         sodipodi:type="arc"
         style="fill:none;stroke:#ff0000;stroke-width:0.70865542;stroke-miterlimit:4;stroke-opacity:1;stroke-dasharray:none"
         id="path3087-80-9"
         sodipodi:cx="320.66928"
         sodipodi:cy="646.6535"
         sodipodi:rx="5.3149605"
         sodipodi:ry="5.3149605"
         d="m 325.98424,646.6535 c 0,2.93538 -2.37959,5.31496 -5.31496,5.31496 -2.93537,0 -5.31496,-2.37958 -5.31496,-5.31496 0,-2.93537 2.37959,-5.31496 5.31496,-5.31496 2.93537,0 5.31496,2.37959 5.31496,5.31496 z"
         transform="matrix(1.0000001,0,0,1.0000168,-2176.1766,88.924047)" />
      <path
         sodipodi:type="arc"
         style="fill:none;stroke:#ff0000;stroke-width:0.70866144;stroke-miterlimit:4;stroke-opacity:1;stroke-dasharray:none"
         id="path3087-4-0-9"
         sodipodi:cx="320.66928"
         sodipodi:cy="646.6535"
         sodipodi:rx="5.3149605"
         sodipodi:ry="5.3149605"
         d="m 325.98424,646.6535 c 0,2.93538 -2.37959,5.31496 -5.31496,5.31496 -2.93537,0 -5.31496,-2.37958 -5.31496,-5.31496 0,-2.93537 2.37959,-5.31496 5.31496,-5.31496 2.93537,0 5.31496,2.37959 5.31496,5.31496 z"
         transform="translate(-1538.3814,88.934907)" />
      <path
         sodipodi:type="arc"
         style="fill:none;stroke:#ff0000;stroke-width:0.70866144;stroke-miterlimit:4;stroke-opacity:1;stroke-dasharray:none"
         id="path3087-5-4-1"
         sodipodi:cx="320.66928"
         sodipodi:cy="646.6535"
         sodipodi:rx="5.3149605"
         sodipodi:ry="5.3149605"
         d="m 325.98424,646.6535 c 0,2.93538 -2.37959,5.31496 -5.31496,5.31496 -2.93537,0 -5.31496,-2.37958 -5.31496,-5.31496 0,-2.93537 2.37959,-5.31496 5.31496,-5.31496 2.93537,0 5.31496,2.37959 5.31496,5.31496 z"
         transform="translate(-1857.279,-141.38006)" />
      <path
         sodipodi:type="arc"
         style="fill:none;stroke:#ff0000;stroke-width:0.70866144;stroke-miterlimit:4;stroke-opacity:1;stroke-dasharray:none"
         id="path3087-5-7-4-1"
         sodipodi:cx="320.66928"
         sodipodi:cy="646.6535"
         sodipodi:rx="5.3149605"
         sodipodi:ry="5.3149605"
         d="m 325.98424,646.6535 c 0,2.93538 -2.37959,5.31496 -5.31496,5.31496 -2.93537,0 -5.31496,-2.37958 -5.31496,-5.31496 0,-2.93537 2.37959,-5.31496 5.31496,-5.31496 2.93537,0 5.31496,2.37959 5.31496,5.31496 z"
         transform="translate(-2071.649,74.461607)" />
      <path
         sodipodi:type="arc"
         style="fill:none;stroke:#ff0000;stroke-width:0.70866144;stroke-miterlimit:4;stroke-opacity:1;stroke-dasharray:none"
         id="path3087-3-3-9"
         sodipodi:cx="320.66928"
         sodipodi:cy="646.6535"
         sodipodi:rx="5.3149605"
         sodipodi:ry="5.3149605"
         d="m 325.98424,646.6535 c 0,2.93538 -2.37959,5.31496 -5.31496,5.31496 -2.93537,0 -5.31496,-2.37958 -5.31496,-5.31496 0,-2.93537 2.37959,-5.31496 5.31496,-5.31496 2.93537,0 5.31496,2.37959 5.31496,5.31496 z"
         transform="translate(-1924.6019,131.45459)" />
      <path
         sodipodi:type="arc"
         style="fill:none;stroke:#ff0000;stroke-width:0.70866144;stroke-miterlimit:4;stroke-opacity:1;stroke-dasharray:none"
         id="path3087-0-3-9"
         sodipodi:cx="320.66928"
         sodipodi:cy="646.6535"
         sodipodi:rx="5.3149605"
         sodipodi:ry="5.3149605"
         d="m 325.98424,646.6535 c 0,2.93538 -2.37959,5.31496 -5.31496,5.31496 -2.93537,0 -5.31496,-2.37958 -5.31496,-5.31496 0,-2.93537 2.37959,-5.31496 5.31496,-5.31496 2.93537,0 5.31496,2.37959 5.31496,5.31496 z"
         transform="translate(-1789.9562,131.45459)" />
      <path
         style="fill:none;stroke:#ff0000;stroke-width:0.70924133;stroke-miterlimit:4;stroke-opacity:1"
         d="m -1777.5546,582.9261 481.8897,0 c 5.9014,0 10.63,4.72855 10.63,10.62992 l 0,152.3622 c 0,5.9014 -4.7286,10.6299 -10.63,10.6299 l -481.8897,-5e-4 c -5.9014,0 -10.6299,-4.7285 -10.6299,-10.6299 l 0,-152.3622 c 0,-5.90137 4.7285,-10.62997 10.6299,-10.62988 z"
         id="rect3218-9-9"
         inkscape:connector-curvature="0"
         sodipodi:nodetypes="cssssssssc" />
      <path
         style="fill:none;stroke:#ff0000;stroke-width:0.70866144;stroke-miterlimit:4;stroke-opacity:1"
         d="m -1777.5546,607.72922 481.8897,0 c 5.889,0 10.63,4.741 10.63,10.6299 l 0,127.5591 c 0,5.8889 -4.741,10.6299 -10.63,10.6299 l -481.8897,0 c -5.889,0 -10.6299,-4.741 -10.6299,-10.6299 l 0,-127.5591 c 0,-5.8889 4.7409,-10.6299 10.6299,-10.6299 z"
         id="rect3220-0-0"
         inkscape:connector-curvature="0"
         sodipodi:nodetypes="sssssssss" />
      <path
         sodipodi:type="arc"
         style="fill:none;stroke:#ff0000;stroke-width:0.70860118;stroke-miterlimit:4;stroke-opacity:1;stroke-dasharray:none"
         id="path4045-2-6"
         sodipodi:cx="331.29922"
         sodipodi:cy="646.6535"
         sodipodi:rx="1.7716535"
         sodipodi:ry="1.7716535"
         d="m 333.07088,646.6535 c 0,0.97846 -0.7932,1.77166 -1.77166,1.77166 -0.97845,0 -1.77165,-0.7932 -1.77165,-1.77166 0,-0.97845 0.7932,-1.77165 1.77165,-1.77165 0.97846,0 1.77166,0.7932 1.77166,1.77165 z"
         transform="matrix(0.99999994,0,0,1.0001701,-1867.9089,120.42291)" />
      <path
         transform="translate(-1678.342,74.461607)"
         d="m 325.98424,646.6535 c 0,2.93538 -2.37959,5.31496 -5.31496,5.31496 -2.93537,0 -5.31496,-2.37958 -5.31496,-5.31496 0,-2.93537 2.37959,-5.31496 5.31496,-5.31496 2.93537,0 5.31496,2.37959 5.31496,5.31496 z"
         sodipodi:ry="5.3149605"
         sodipodi:rx="5.3149605"
         sodipodi:cy="646.6535"
         sodipodi:cx="320.66928"
         id="path3087-5-78-7-1"
         style="fill:none;stroke:#ff0000;stroke-width:0.70866144;stroke-miterlimit:4;stroke-opacity:1;stroke-dasharray:none"
         sodipodi:type="arc" />
      <path
         sodipodi:type="arc"
         style="fill:none;stroke:#ff0000;stroke-width:0.70866144;stroke-miterlimit:4;stroke-opacity:1;stroke-dasharray:none"
         id="path3087-5-5-3-9"
         sodipodi:cx="320.66928"
         sodipodi:cy="646.6535"
         sodipodi:rx="5.3149605"
         sodipodi:ry="5.3149605"
         d="m 325.98424,646.6535 c 0,2.93538 -2.37959,5.31496 -5.31496,5.31496 -2.93537,0 -5.31496,-2.37958 -5.31496,-5.31496 0,-2.93537 2.37959,-5.31496 5.31496,-5.31496 2.93537,0 5.31496,2.37959 5.31496,5.31496 z"
         transform="translate(-1873.6809,-113.32537)" />
      <path
         sodipodi:type="arc"
         style="fill:none;stroke:#ff0000;stroke-width:0.70866144;stroke-miterlimit:4;stroke-opacity:1;stroke-dasharray:none"
         id="path3087-5-8-6-4"
         sodipodi:cx="320.66928"
         sodipodi:cy="646.6535"
         sodipodi:rx="5.3149605"
         sodipodi:ry="5.3149605"
         d="m 325.98424,646.6535 c 0,2.93538 -2.37959,5.31496 -5.31496,5.31496 -2.93537,0 -5.31496,-2.37958 -5.31496,-5.31496 0,-2.93537 2.37959,-5.31496 5.31496,-5.31496 2.93537,0 5.31496,2.37959 5.31496,5.31496 z"
         transform="translate(-1840.8771,-113.32537)" />
      <path
         sodipodi:type="arc"
         style="fill:none;stroke:#ff0000;stroke-width:0.70866144;stroke-miterlimit:4;stroke-opacity:1;stroke-dasharray:none"
         id="path3087-5-7-4-3-2-9"
         sodipodi:cx="320.66928"
         sodipodi:cy="646.6535"
         sodipodi:rx="5.3149605"
         sodipodi:ry="5.3149605"
         d="m 325.98424,646.6535 c 0,2.93538 -2.37959,5.31496 -5.31496,5.31496 -2.93537,0 -5.31496,-2.37958 -5.31496,-5.31496 0,-2.93537 2.37959,-5.31496 5.31496,-5.31496 2.93537,0 5.31496,2.37959 5.31496,5.31496 z"
         transform="translate(-1892.712,131.16285)" />
      <path
         sodipodi:type="arc"
         style="fill:none;stroke:#ff0000;stroke-width:0.70866144;stroke-miterlimit:4;stroke-opacity:1;stroke-dasharray:none"
         id="path3087-5-7-4-0-1-3-6"
         sodipodi:cx="320.66928"
         sodipodi:cy="646.6535"
         sodipodi:rx="5.3149605"
         sodipodi:ry="5.3149605"
         d="m 325.98424,646.6535 c 0,2.93538 -2.37959,5.31496 -5.31496,5.31496 -2.93537,0 -5.31496,-2.37958 -5.31496,-5.31496 0,-2.93537 2.37959,-5.31496 5.31496,-5.31496 2.93537,0 5.31496,2.37959 5.31496,5.31496 z"
         transform="translate(-1821.8458,131.16285)" />
      <path
         sodipodi:type="arc"
         style="fill:none;stroke:#ff0000;stroke-width:0.98195004;stroke-miterlimit:4;stroke-opacity:1;stroke-dasharray:none"
         id="path3084-6-5"
         sodipodi:cx="496.06299"
         sodipodi:cy="763.58264"
         sodipodi:rx="7.0866141"
         sodipodi:ry="5.3149605"
         d="m 503.1496,763.58264 c 0,2.93537 -3.17278,5.31496 -7.08661,5.31496 -3.91383,0 -7.08662,-2.37959 -7.08662,-5.31496 0,-2.93537 3.17279,-5.31496 7.08662,-5.31496 3.91383,0 7.08661,2.37959 7.08661,5.31496 z"
         transform="matrix(0.625,0,0,0.83333336,-1873.2238,190.45048)" />
      <path
         sodipodi:type="arc"
         style="fill:none;stroke:#ff0000;stroke-width:0.98195004;stroke-miterlimit:4;stroke-opacity:1;stroke-dasharray:none"
         id="path3084-7-5-9"
         sodipodi:cx="496.06299"
         sodipodi:cy="763.58264"
         sodipodi:rx="7.0866141"
         sodipodi:ry="5.3149605"
         d="m 503.1496,763.58264 c 0,2.93537 -3.17278,5.31496 -7.08661,5.31496 -3.91383,0 -7.08662,-2.37959 -7.08662,-5.31496 0,-2.93537 3.17279,-5.31496 7.08662,-5.31496 3.91383,0 7.08661,2.37959 7.08661,5.31496 z"
         transform="matrix(0.625,0,0,0.83333336,-1820.0745,190.45048)" />
      <path
         sodipodi:type="arc"
         style="fill:none;stroke:#ff0000;stroke-width:0.98195004;stroke-miterlimit:4;stroke-opacity:1;stroke-dasharray:none"
         id="path3084-8-0-6"
         sodipodi:cx="496.06299"
         sodipodi:cy="763.58264"
         sodipodi:rx="7.0866141"
         sodipodi:ry="5.3149605"
         d="m 503.1496,763.58264 c 0,2.93537 -3.17278,5.31496 -7.08661,5.31496 -3.91383,0 -7.08662,-2.37959 -7.08662,-5.31496 0,-2.93537 3.17279,-5.31496 7.08662,-5.31496 3.91383,0 7.08661,2.37959 7.08661,5.31496 z"
         transform="matrix(0.625,0,0,0.83333336,-1873.2237,-360.99881)" />
      <path
         sodipodi:type="arc"
         style="fill:none;stroke:#ff0000;stroke-width:0.98195004;stroke-miterlimit:4;stroke-opacity:1;stroke-dasharray:none"
         id="path3084-7-2-3-4"
         sodipodi:cx="496.06299"
         sodipodi:cy="763.58264"
         sodipodi:rx="7.0866141"
         sodipodi:ry="5.3149605"
         d="m 503.1496,763.58264 c 0,2.93537 -3.17278,5.31496 -7.08661,5.31496 -3.91383,0 -7.08662,-2.37959 -7.08662,-5.31496 0,-2.93537 3.17279,-5.31496 7.08662,-5.31496 3.91383,0 7.08661,2.37959 7.08661,5.31496 z"
         transform="matrix(0.625,0,0,0.83333336,-1820.0744,-360.99881)" />
      <path
         sodipodi:type="arc"
         style="fill:none;stroke:#ff0000;stroke-width:0.70866144;stroke-miterlimit:4;stroke-opacity:1;stroke-dasharray:none"
         id="path3087-5-7-6-9-5"
         sodipodi:cx="320.66928"
         sodipodi:cy="646.6535"
         sodipodi:rx="5.3149605"
         sodipodi:ry="5.3149605"
         d="m 325.98424,646.6535 c 0,2.93538 -2.37959,5.31496 -5.31496,5.31496 -2.93537,0 -5.31496,-2.37958 -5.31496,-5.31496 0,-2.93537 2.37959,-5.31496 5.31496,-5.31496 2.93537,0 5.31496,2.37959 5.31496,5.31496 z"
         transform="translate(-2071.649,-3.4911928)" />
      <path
         transform="translate(-1678.342,-3.4911928)"
         d="m 325.98424,646.6535 c 0,2.93538 -2.37959,5.31496 -5.31496,5.31496 -2.93537,0 -5.31496,-2.37958 -5.31496,-5.31496 0,-2.93537 2.37959,-5.31496 5.31496,-5.31496 2.93537,0 5.31496,2.37959 5.31496,5.31496 z"
         sodipodi:ry="5.3149605"
         sodipodi:rx="5.3149605"
         sodipodi:cy="646.6535"
         sodipodi:cx="320.66928"
         id="path3087-5-78-9-0-8"
         style="fill:none;stroke:#ff0000;stroke-width:0.70866144;stroke-miterlimit:4;stroke-opacity:1;stroke-dasharray:none"
         sodipodi:type="arc" />
      <path
         sodipodi:type="arc"
         style="fill:none;stroke:#ff0000;stroke-width:0.35433072;stroke-miterlimit:4;stroke-opacity:1;stroke-dasharray:none"
         id="path3488"
         sodipodi:cx="373.81891"
         sodipodi:cy="1472.244"
         sodipodi:rx="5.3149605"
         sodipodi:ry="5.3149605"
         d="m 379.13387,1472.244 c 0,2.9354 -2.37959,5.315 -5.31496,5.315 -2.93537,0 -5.31496,-2.3796 -5.31496,-5.315 0,-2.9354 2.37959,-5.3149 5.31496,-5.3149 2.93537,0 5.31496,2.3795 5.31496,5.3149 z"
         transform="translate(-1922.8302,-1224.1605)" />
      <path
         transform="translate(-1898.027,-1224.1605)"
         sodipodi:type="arc"
         style="fill:none;stroke:#ff0000;stroke-width:0.35433072;stroke-miterlimit:4;stroke-opacity:1;stroke-dasharray:none"
         id="path3488-5"
         sodipodi:cx="373.81891"
         sodipodi:cy="1472.244"
         sodipodi:rx="5.3149605"
         sodipodi:ry="5.3149605"
         d="m 379.13387,1472.244 c 0,2.9354 -2.37959,5.315 -5.31496,5.315 -2.93537,0 -5.31496,-2.3796 -5.31496,-5.315 0,-2.9354 2.37959,-5.3149 5.31496,-5.3149 2.93537,0 5.31496,2.3795 5.31496,5.3149 z" />
      <path
         sodipodi:type="arc"
         style="fill:none;stroke:#ff0000;stroke-width:0.35433072;stroke-miterlimit:4;stroke-opacity:1;stroke-dasharray:none"
         id="path4449"
         sodipodi:cx="666.14172"
         sodipodi:cy="1474.0156"
         sodipodi:rx="3.5433071"
         sodipodi:ry="3.5433071"
         d="m 669.68503,1474.0156 c 0,1.9569 -1.58639,3.5433 -3.54331,3.5433 -1.95691,0 -3.5433,-1.5864 -3.5433,-3.5433 0,-1.9569 1.58639,-3.5433 3.5433,-3.5433 1.95692,0 3.54331,1.5864 3.54331,3.5433 z"
         transform="translate(-1929.9168,-1224.1604)" />
      <path
         sodipodi:type="arc"
         style="fill:none;stroke:#ff0000;stroke-width:0.35433072;stroke-miterlimit:4;stroke-opacity:1;stroke-dasharray:none"
         id="path4449-2"
         sodipodi:cx="666.14172"
         sodipodi:cy="1474.0156"
         sodipodi:rx="3.5433071"
         sodipodi:ry="3.5433071"
         d="m 669.68503,1474.0156 c 0,1.9569 -1.58639,3.5433 -3.54331,3.5433 -1.95691,0 -3.5433,-1.5864 -3.5433,-3.5433 0,-1.9569 1.58639,-3.5433 3.5433,-3.5433 1.95692,0 3.54331,1.5864 3.54331,3.5433 z"
         transform="matrix(-1,0,0,1,-1143.3027,-1224.1604)" />
      <path
         transform="translate(-1957.5546,-304.31794)"
         d="m 325.98424,646.6535 c 0,2.93538 -2.37959,5.31496 -5.31496,5.31496 -2.93537,0 -5.31496,-2.37958 -5.31496,-5.31496 0,-2.93537 2.37959,-5.31496 5.31496,-5.31496 2.93537,0 5.31496,2.37959 5.31496,5.31496 z"
         sodipodi:ry="5.3149605"
         sodipodi:rx="5.3149605"
         sodipodi:cy="646.6535"
         sodipodi:cx="320.66928"
         id="path3087-40-4-5-4"
         style="fill:none;stroke:#ff0000;stroke-width:0.70866144;stroke-miterlimit:4;stroke-opacity:1;stroke-dasharray:none"
         sodipodi:type="arc" />
      <path
         transform="matrix(-1,0,0,1,-1115.6649,-304.31798)"
         d="m 325.98424,646.6535 c 0,2.93538 -2.37959,5.31496 -5.31496,5.31496 -2.93537,0 -5.31496,-2.37958 -5.31496,-5.31496 0,-2.93537 2.37959,-5.31496 5.31496,-5.31496 2.93537,0 5.31496,2.37959 5.31496,5.31496 z"
         sodipodi:ry="5.3149605"
         sodipodi:rx="5.3149605"
         sodipodi:cy="646.6535"
         sodipodi:cx="320.66928"
         id="path3087-40-4-5-4-0"
         style="fill:none;stroke:#ff0000;stroke-width:0.70866144;stroke-miterlimit:4;stroke-opacity:1;stroke-dasharray:none"
         sodipodi:type="arc" />
      <path
         transform="matrix(1.08,0,0,1.08,-1968.1845,-1357.3888)"
         d="m 389.76378,1621.0629 c 0,24.4614 -19.82991,44.2913 -44.29134,44.2913 -24.46143,0 -44.29134,-19.8299 -44.29134,-44.2913 0,-24.4615 19.82991,-44.2914 44.29134,-44.2914 24.46143,0 44.29134,19.8299 44.29134,44.2914 z"
         sodipodi:ry="44.29134"
         sodipodi:rx="44.29134"
         sodipodi:cy="1621.0629"
         sodipodi:cx="345.47244"
         id="path4291"
         style="fill:none;stroke:#ff0000;stroke-width:0.65616804;stroke-miterlimit:4;stroke-opacity:1;stroke-dasharray:none"
         sodipodi:type="arc" />
      <path
         transform="matrix(1.08,0,0,1.08,-1851.2553,-1357.3888)"
         d="m 389.76378,1621.0629 c 0,24.4614 -19.82991,44.2913 -44.29134,44.2913 -24.46143,0 -44.29134,-19.8299 -44.29134,-44.2913 0,-24.4615 19.82991,-44.2914 44.29134,-44.2914 24.46143,0 44.29134,19.8299 44.29134,44.2914 z"
         sodipodi:ry="44.29134"
         sodipodi:rx="44.29134"
         sodipodi:cy="1621.0629"
         sodipodi:cx="345.47244"
         id="path4291-9"
         style="fill:none;stroke:#ff0000;stroke-width:0.65616804;stroke-miterlimit:4;stroke-opacity:1;stroke-dasharray:none"
         sodipodi:type="arc" />
      <path
         transform="matrix(-1,0,0,-1,-1115.6648,1093.8709)"
         d="m 325.98424,646.6535 c 0,2.93538 -2.37959,5.31496 -5.31496,5.31496 -2.93537,0 -5.31496,-2.37958 -5.31496,-5.31496 0,-2.93537 2.37959,-5.31496 5.31496,-5.31496 2.93537,0 5.31496,2.37959 5.31496,5.31496 z"
         sodipodi:ry="5.3149605"
         sodipodi:rx="5.3149605"
         sodipodi:cy="646.6535"
         sodipodi:cx="320.66928"
         id="path3087-40-4-5-4-0-6"
         style="fill:none;stroke:#ff0000;stroke-width:0.70866144;stroke-miterlimit:4;stroke-opacity:1;stroke-dasharray:none"
         sodipodi:type="arc" />
      <path
         transform="matrix(1,0,0,-1,-1957.5546,1093.8709)"
         d="m 325.98424,646.6535 c 0,2.93538 -2.37959,5.31496 -5.31496,5.31496 -2.93537,0 -5.31496,-2.37958 -5.31496,-5.31496 0,-2.93537 2.37959,-5.31496 5.31496,-5.31496 2.93537,0 5.31496,2.37959 5.31496,5.31496 z"
         sodipodi:ry="5.3149605"
         sodipodi:rx="5.3149605"
         sodipodi:cy="646.6535"
         sodipodi:cx="320.66928"
         id="path3087-40-4-5-4-0-2"
         style="fill:none;stroke:#ff0000;stroke-width:0.70866144;stroke-miterlimit:4;stroke-opacity:1;stroke-dasharray:none"
         sodipodi:type="arc" />
      <path
         transform="translate(-1926.3735,-1206.4439)"
         d="m 334.84253,1465.1573 c 0,1.957 -1.58639,3.5434 -3.54331,3.5434 -1.95691,0 -3.5433,-1.5864 -3.5433,-3.5434 0,-1.9569 1.58639,-3.5433 3.5433,-3.5433 1.95692,0 3.54331,1.5864 3.54331,3.5433 z"
         sodipodi:ry="3.5433071"
         sodipodi:rx="3.5433071"
         sodipodi:cy="1465.1573"
         sodipodi:cx="331.29922"
         id="path4780"
         style="fill:none;stroke:#ff0000;stroke-width:0.35433072;stroke-miterlimit:4;stroke-opacity:1;stroke-dasharray:none"
         sodipodi:type="arc" />
      <rect
         inkscape:transform-center-x="-12.898119"
         inkscape:transform-center-y="6.2906441"
         style="fill:#000000;stroke:#000000;stroke-width:0.35433072;stroke-miterlimit:4;stroke-opacity:1;stroke-dasharray:none"
         id="rect4493-6"
         width="3.5439129"
         height="28.346466"
         x="1015.8259"
         y="-1516.7018"
         rx="1.7439238"
         ry="1.9223671e-06"
         transform="matrix(-0.43835961,0.89879967,0.89879967,0.43835961,0,0)" />
      <path
         transform="matrix(-1,0,0,1,-1472.8302,-398.56992)"
         d="m 325.98424,646.6535 c 0,2.93538 -2.37959,5.31496 -5.31496,5.31496 -2.93537,0 -5.31496,-2.37958 -5.31496,-5.31496 0,-2.93537 2.37959,-5.31496 5.31496,-5.31496 2.93537,0 5.31496,2.37959 5.31496,5.31496 z"
         sodipodi:ry="5.3149605"
         sodipodi:rx="5.3149605"
         sodipodi:cy="646.6535"
         sodipodi:cx="320.66928"
         id="path3087-8-7-4-2-1-5"
         style="fill:none;stroke:#ff0000;stroke-width:0.70866144;stroke-miterlimit:4;stroke-opacity:1;stroke-dasharray:none"
         sodipodi:type="arc" />
      <rect
         inkscape:transform-center-x="-12.898119"
         inkscape:transform-center-y="6.2906441"
         style="fill:#000000;stroke:#000000;stroke-width:0.35433072;stroke-miterlimit:4;stroke-opacity:1;stroke-dasharray:none"
         id="rect4493-6-8"
         width="3.5439129"
         height="28.346466"
         x="-331.34949"
         y="1245.5067"
         rx="1.7439238"
         ry="1.9223671e-06"
         transform="matrix(0.43835961,0.89879967,-0.89879967,0.43835961,0,0)" />
      <path
         transform="translate(-1600.3893,-398.56992)"
         d="m 325.98424,646.6535 c 0,2.93538 -2.37959,5.31496 -5.31496,5.31496 -2.93537,0 -5.31496,-2.37958 -5.31496,-5.31496 0,-2.93537 2.37959,-5.31496 5.31496,-5.31496 2.93537,0 5.31496,2.37959 5.31496,5.31496 z"
         sodipodi:ry="5.3149605"
         sodipodi:rx="5.3149605"
         sodipodi:cy="646.6535"
         sodipodi:cx="320.66928"
         id="path3087-8-7-4-2-1-5-3"
         style="fill:none;stroke:#ff0000;stroke-width:0.70866144;stroke-miterlimit:4;stroke-opacity:1;stroke-dasharray:none"
         sodipodi:type="arc" />
      <path
         sodipodi:type="arc"
         style="fill:none;stroke:#ff0000;stroke-width:0.35433072;stroke-miterlimit:4;stroke-opacity:1;stroke-dasharray:none"
         id="path3541"
         sodipodi:cx="593.50397"
         sodipodi:cy="1727.3621"
         sodipodi:rx="44.29134"
         sodipodi:ry="44.29134"
         d="m 637.79531,1727.3621 c 0,24.4614 -19.82991,44.2913 -44.29134,44.2913 -24.46143,0 -44.29134,-19.8299 -44.29134,-44.2913 0,-24.4615 19.82991,-44.2914 44.29134,-44.2914 24.46143,0 44.29134,19.8299 44.29134,44.2914 z"
         transform="translate(-1961.8066,-1256.0501)" />
      <path
         sodipodi:type="arc"
         style="fill:none;stroke:#ff0000;stroke-width:0.35433072;stroke-miterlimit:4;stroke-opacity:1;stroke-dasharray:none"
         id="path3541-1"
         sodipodi:cx="593.50397"
         sodipodi:cy="1727.3621"
         sodipodi:rx="44.29134"
         sodipodi:ry="44.29134"
         d="m 637.79531,1727.3621 c 0,24.4614 -19.82991,44.2913 -44.29134,44.2913 -24.46143,0 -44.29134,-19.8299 -44.29134,-44.2913 0,-24.4615 19.82991,-44.2914 44.29134,-44.2914 24.46143,0 44.29134,19.8299 44.29134,44.2914 z"
         transform="translate(-2298.4207,-1256.0501)" />
    </g>
    <g
       id="g4186"
       transform="translate(2787.4218,40.670486)">
      <path
         sodipodi:type="arc"
         style="fill:none;stroke:#ff0000;stroke-width:0.70866144;stroke-miterlimit:4;stroke-opacity:1;stroke-dasharray:none"
         id="path3087-5-5-3-9-4"
         sodipodi:cx="320.66928"
         sodipodi:cy="646.6535"
         sodipodi:rx="5.3149605"
         sodipodi:ry="5.3149605"
         d="m 325.98424,646.6535 c 0,2.93538 -2.37959,5.31496 -5.31496,5.31496 -2.93537,0 -5.31496,-2.37958 -5.31496,-5.31496 0,-2.93537 2.37959,-5.31496 5.31496,-5.31496 2.93537,0 5.31496,2.37959 5.31496,5.31496 z"
         transform="translate(-1531.3194,-92.048453)" />
      <path
         sodipodi:type="arc"
         style="fill:none;stroke:#ff0000;stroke-width:0.70866144;stroke-miterlimit:4;stroke-opacity:1;stroke-dasharray:none"
         id="path3087-5-8-6-4-6"
         sodipodi:cx="320.66928"
         sodipodi:cy="646.6535"
         sodipodi:rx="5.3149605"
         sodipodi:ry="5.3149605"
         d="m 325.98424,646.6535 c 0,2.93538 -2.37959,5.31496 -5.31496,5.31496 -2.93537,0 -5.31496,-2.37958 -5.31496,-5.31496 0,-2.93537 2.37959,-5.31496 5.31496,-5.31496 2.93537,0 5.31496,2.37959 5.31496,5.31496 z"
         transform="translate(-1498.5156,-92.048453)" />
      <rect
         rx="7.0866289"
         style="fill:none;stroke:#ff0000;stroke-width:0.70866144;stroke-miterlimit:4;stroke-opacity:1;stroke-dasharray:none"
         id="rect3102-5-8-3"
         width="56.692913"
         height="21.259842"
         x="-1222.5948"
         y="543.97516"
         ry="7.0866289" />
    </g>
    <g
       id="g4219"
       transform="matrix(0,1,-1,0,1534.3155,1189.3902)">
      <path
         transform="translate(-1334.3495,-325.92379)"
         d="m 325.98424,646.6535 c 0,2.93538 -2.37959,5.31496 -5.31496,5.31496 -2.93537,0 -5.31496,-2.37958 -5.31496,-5.31496 0,-2.93537 2.37959,-5.31496 5.31496,-5.31496 2.93537,0 5.31496,2.37959 5.31496,5.31496 z"
         sodipodi:ry="5.3149605"
         sodipodi:rx="5.3149605"
         sodipodi:cy="646.6535"
         sodipodi:cx="320.66928"
         id="path3087-40-4-5-8"
         style="fill:none;stroke:#ff0000;stroke-width:0.70866144;stroke-miterlimit:4;stroke-opacity:1;stroke-dasharray:none"
         sodipodi:type="arc" />
      <path
         transform="translate(-1016.0353,-325.92379)"
         d="m 325.98424,646.6535 c 0,2.93538 -2.37959,5.31496 -5.31496,5.31496 -2.93537,0 -5.31496,-2.37958 -5.31496,-5.31496 0,-2.93537 2.37959,-5.31496 5.31496,-5.31496 2.93537,0 5.31496,2.37959 5.31496,5.31496 z"
         sodipodi:ry="5.3149605"
         sodipodi:rx="5.3149605"
         sodipodi:cy="646.6535"
         sodipodi:cx="320.66928"
         id="path3087-1-5-2-6"
         style="fill:none;stroke:#ff0000;stroke-width:0.70866144;stroke-miterlimit:4;stroke-opacity:1;stroke-dasharray:none"
         sodipodi:type="arc" />
      <path
         transform="translate(-1494.09,-334.79036)"
         d="m 325.98424,646.6535 c 0,2.93538 -2.37959,5.31496 -5.31496,5.31496 -2.93537,0 -5.31496,-2.37958 -5.31496,-5.31496 0,-2.93537 2.37959,-5.31496 5.31496,-5.31496 2.93537,0 5.31496,2.37959 5.31496,5.31496 z"
         sodipodi:ry="5.3149605"
         sodipodi:rx="5.3149605"
         sodipodi:cy="646.6535"
         sodipodi:cx="320.66928"
         id="path3087-6-4-0-1"
         style="fill:none;stroke:#ff0000;stroke-width:0.70866144;stroke-miterlimit:4;stroke-opacity:1;stroke-dasharray:none"
         sodipodi:type="arc" />
      <path
         transform="translate(-856.29486,-334.49861)"
         d="m 325.98424,646.6535 c 0,2.93538 -2.37959,5.31496 -5.31496,5.31496 -2.93537,0 -5.31496,-2.37958 -5.31496,-5.31496 0,-2.93537 2.37959,-5.31496 5.31496,-5.31496 2.93537,0 5.31496,2.37959 5.31496,5.31496 z"
         sodipodi:ry="5.3149605"
         sodipodi:rx="5.3149605"
         sodipodi:cy="646.6535"
         sodipodi:cx="320.66928"
         id="path3087-8-7-4-2"
         style="fill:none;stroke:#ff0000;stroke-width:0.70866144;stroke-miterlimit:4;stroke-opacity:1;stroke-dasharray:none"
         sodipodi:type="arc" />
      <path
         style="fill:none;stroke:#ff0000;stroke-width:0.70866144;stroke-miterlimit:4;stroke-opacity:1;stroke-dasharray:none"
         d="m -1115.2244,232.16412 c -42.5277,1.0553 -76.4657,35.1468 -75.9375,77.9376 l 0,17.7187 35.4375,0 0,-17.7187 17.7188,0 0,17.7187 0,127.5313 c 0.018,7.1019 0.018,21.2752 0,28.375 l 0.031,0 0,14.1562 24.7899,0 0,-5.3149 14.1732,0 0,5.3149 3.5369,0 0,14.1875 -3.5369,-0.011 0,5.315 -14.1732,0 0,-5.315 -24.7899,0.011 0,14.125 c -0.013,7.1244 -0.013,21.2976 -0.031,28.37497 l 0,127.5938 0,17.7188 -17.7187,0 0,-17.7188 -35.4375,0 0,106.2813 c 0,43.47322 34.4956,81.50002 77.9687,81.50002 l 517.31244,0 c 43.4731,0 77.9687,-38.0268 77.9687,-81.50002 l 0,-106.2813 -35.4375,0 0,17.7188 -17.7187,0 0,-17.7188 0,-127.5625 c 0.01,-7.10867 0.01,-21.28187 0,-28.37497 l 0,-14.1563 -24.7936,-0.011 0,5.315 -14.1732,0 0,-5.315 -3.5332,0.011 0,-14.1875 3.5332,0 0,-5.3149 14.1732,0 0,5.3149 24.7936,0 0,-14.1562 c 0.01,-7.0998 0.01,-21.2731 0,-28.375 l 0,-127.5313 0,-17.7187 17.7187,0 0,17.7187 35.4375,0 0,-17.7187 c 0,-43.474 -34.4956,-77.9376 -77.9687,-77.9376 l -517.31244,0 c -0.6793,0 -1.3562,-0.016 -2.0312,0 z"
         id="rect4066-8-3-2"
         inkscape:connector-curvature="0"
         sodipodi:nodetypes="cccccccccccccccccccccccccccccssssccccccccccccccccccccccccccssscc" />
      <rect
         style="fill:none;stroke:#ff0000;stroke-width:0.70866144;stroke-miterlimit:4;stroke-opacity:1;stroke-dasharray:none"
         id="rect4158-4-5-9"
         width="70.866142"
         height="17.716536"
         x="-960.82239"
         y="310.0997" />
      <rect
         style="fill:none;stroke:#ff0000;stroke-width:0.70866144;stroke-miterlimit:4;stroke-opacity:1;stroke-dasharray:none"
         id="rect4158-2-2-7-6"
         width="70.866142"
         height="17.716536"
         x="-819.09009"
         y="310.0997" />
      <rect
         transform="matrix(0.96592583,0.25881905,-0.25881905,0.96592583,0,0)"
         style="fill:none;stroke:#ff0000;stroke-width:0.70866144;stroke-miterlimit:4;stroke-opacity:1;stroke-dasharray:none"
         id="rect4180-6-4-1"
         width="70.866142"
         height="17.716536"
         x="-841.255"
         y="1033.6625" />
      <rect
         transform="matrix(0.96592583,-0.25881905,0.25881905,0.96592583,0,0)"
         style="fill:none;stroke:#ff0000;stroke-width:0.70866144;stroke-miterlimit:4;stroke-opacity:1;stroke-dasharray:none"
         id="rect4180-9-0-3-8"
         width="70.866142"
         height="17.716536"
         x="-1126.8561"
         y="12.687445" />
      <rect
         transform="matrix(0.96592583,0.25881905,-0.25881905,0.96592583,0,0)"
         style="fill:none;stroke:#ff0000;stroke-width:0.70866144;stroke-miterlimit:4;stroke-opacity:1;stroke-dasharray:none"
         id="rect4180-5-5-0-1"
         width="70.866142"
         height="17.716536"
         x="-595.90704"
         y="455.02133" />
      <rect
         style="fill:none;stroke:#ff0000;stroke-width:0.70866144;stroke-miterlimit:4;stroke-opacity:1;stroke-dasharray:none"
         id="rect4180-2-4-1-8"
         width="70.866142"
         height="17.716536"
         x="-881.1488"
         y="591.88403"
         transform="matrix(0.96592583,-0.25881905,0.25881905,0.96592583,0,0)" />
      <path
         sodipodi:type="arc"
         style="fill:none;stroke:#ff0000;stroke-width:0.70865542;stroke-miterlimit:4;stroke-opacity:1;stroke-dasharray:none"
         id="path3087-80-9-0"
         sodipodi:cx="320.66928"
         sodipodi:cy="646.6535"
         sodipodi:rx="5.3149605"
         sodipodi:ry="5.3149605"
         d="m 325.98424,646.6535 c 0,2.93538 -2.37959,5.31496 -5.31496,5.31496 -2.93537,0 -5.31496,-2.37958 -5.31496,-5.31496 0,-2.93537 2.37959,-5.31496 5.31496,-5.31496 2.93537,0 5.31496,2.37959 5.31496,5.31496 z"
         transform="matrix(1.0000001,0,0,1.0000168,-1494.09,88.924057)" />
      <path
         sodipodi:type="arc"
         style="fill:none;stroke:#ff0000;stroke-width:0.70866144;stroke-miterlimit:4;stroke-opacity:1;stroke-dasharray:none"
         id="path3087-4-0-9-6"
         sodipodi:cx="320.66928"
         sodipodi:cy="646.6535"
         sodipodi:rx="5.3149605"
         sodipodi:ry="5.3149605"
         d="m 325.98424,646.6535 c 0,2.93538 -2.37959,5.31496 -5.31496,5.31496 -2.93537,0 -5.31496,-2.37958 -5.31496,-5.31496 0,-2.93537 2.37959,-5.31496 5.31496,-5.31496 2.93537,0 5.31496,2.37959 5.31496,5.31496 z"
         transform="translate(-856.29486,88.934917)" />
      <path
         sodipodi:type="arc"
         style="fill:none;stroke:#ff0000;stroke-width:0.70866144;stroke-miterlimit:4;stroke-opacity:1;stroke-dasharray:none"
         id="path3087-3-3-9-0"
         sodipodi:cx="320.66928"
         sodipodi:cy="646.6535"
         sodipodi:rx="5.3149605"
         sodipodi:ry="5.3149605"
         d="m 325.98424,646.6535 c 0,2.93538 -2.37959,5.31496 -5.31496,5.31496 -2.93537,0 -5.31496,-2.37958 -5.31496,-5.31496 0,-2.93537 2.37959,-5.31496 5.31496,-5.31496 2.93537,0 5.31496,2.37959 5.31496,5.31496 z"
         transform="translate(-1242.5153,131.4546)" />
      <path
         sodipodi:type="arc"
         style="fill:none;stroke:#ff0000;stroke-width:0.70866144;stroke-miterlimit:4;stroke-opacity:1;stroke-dasharray:none"
         id="path3087-0-3-9-0"
         sodipodi:cx="320.66928"
         sodipodi:cy="646.6535"
         sodipodi:rx="5.3149605"
         sodipodi:ry="5.3149605"
         d="m 325.98424,646.6535 c 0,2.93538 -2.37959,5.31496 -5.31496,5.31496 -2.93537,0 -5.31496,-2.37958 -5.31496,-5.31496 0,-2.93537 2.37959,-5.31496 5.31496,-5.31496 2.93537,0 5.31496,2.37959 5.31496,5.31496 z"
         transform="translate(-1107.8696,131.4546)" />
      <path
         style="fill:none;stroke:#ff0000;stroke-width:0.35433039;stroke-miterlimit:4;stroke-opacity:1"
         d="m -581.68856,246.31193 0,0 c 1.963,0 3.5433,1.58031 3.5433,3.5433 l 0,23.03151 c 0,1.96299 -1.5803,3.5433 -3.5433,3.5433 l 0,0 c -1.963,0 -3.5433,-1.58031 -3.5433,-3.5433 l 0,-23.03151 c 0,-1.96299 1.5803,-3.5433 3.5433,-3.5433 z"
         id="rect4474-0"
         inkscape:connector-curvature="0"
         sodipodi:nodetypes="sssssssss" />
      <path
         sodipodi:type="arc"
         style="fill:none;stroke:#ff0000;stroke-width:0.70866144;stroke-miterlimit:4;stroke-opacity:1;stroke-dasharray:none"
         id="path3087-8-7-4-0-9"
         sodipodi:cx="320.66928"
         sodipodi:cy="646.6535"
         sodipodi:rx="5.3149605"
         sodipodi:ry="5.3149605"
         d="m 325.98424,646.6535 c 0,2.93538 -2.37959,5.31496 -5.31496,5.31496 -2.93537,0 -5.31496,-2.37958 -5.31496,-5.31496 0,-2.93537 2.37959,-5.31496 5.31496,-5.31496 2.93537,0 5.31496,2.37959 5.31496,5.31496 z"
         transform="translate(-902.35786,-363.13684)" />
      <path
         style="fill:none;stroke:#ff0000;stroke-width:0.35433039;stroke-miterlimit:4;stroke-opacity:1"
         d="m -1127.3577,246.31193 0,0 c -1.963,0 -3.5433,1.58031 -3.5433,3.5433 l 0,23.03151 c 0,1.96299 1.5803,3.5433 3.5433,3.5433 l 0,0 c 1.963,0 3.5433,-1.58031 3.5433,-3.5433 l 0,-23.03151 c 0,-1.96299 -1.5803,-3.5433 -3.5433,-3.5433 z"
         id="rect4474-9-3"
         inkscape:connector-curvature="0"
         sodipodi:nodetypes="sssssssss" />
      <path
         sodipodi:type="arc"
         style="fill:none;stroke:#ff0000;stroke-width:0.70866144;stroke-miterlimit:4;stroke-opacity:1;stroke-dasharray:none"
         id="path3087-8-7-4-0-6-9"
         sodipodi:cx="320.66928"
         sodipodi:cy="646.6535"
         sodipodi:rx="5.3149605"
         sodipodi:ry="5.3149605"
         d="m 325.98424,646.6535 c 0,2.93538 -2.37959,5.31496 -5.31496,5.31496 -2.93537,0 -5.31496,-2.37958 -5.31496,-5.31496 0,-2.93537 2.37959,-5.31496 5.31496,-5.31496 2.93537,0 5.31496,2.37959 5.31496,5.31496 z"
         transform="matrix(-1,0,0,1,-806.68856,-363.13684)" />
      <path
         transform="matrix(1.08,0,0,1.08,-1286.0979,-1357.3888)"
         d="m 389.76378,1621.0629 c 0,24.4614 -19.82991,44.2913 -44.29134,44.2913 -24.46143,0 -44.29134,-19.8299 -44.29134,-44.2913 0,-24.4615 19.82991,-44.2914 44.29134,-44.2914 24.46143,0 44.29134,19.8299 44.29134,44.2914 z"
         sodipodi:ry="44.29134"
         sodipodi:rx="44.29134"
         sodipodi:cy="1621.0629"
         sodipodi:cx="345.47244"
         id="path4291-1"
         style="fill:none;stroke:#ff0000;stroke-width:0.65616804;stroke-miterlimit:4;stroke-opacity:1;stroke-dasharray:none"
         sodipodi:type="arc" />
      <path
         transform="matrix(1.08,0,0,1.08,-1169.1687,-1357.3888)"
         d="m 389.76378,1621.0629 c 0,24.4614 -19.82991,44.2913 -44.29134,44.2913 -24.46143,0 -44.29134,-19.8299 -44.29134,-44.2913 0,-24.4615 19.82991,-44.2914 44.29134,-44.2914 24.46143,0 44.29134,19.8299 44.29134,44.2914 z"
         sodipodi:ry="44.29134"
         sodipodi:rx="44.29134"
         sodipodi:cy="1621.0629"
         sodipodi:cx="345.47244"
         id="path4291-9-1"
         style="fill:none;stroke:#ff0000;stroke-width:0.65616804;stroke-miterlimit:4;stroke-opacity:1;stroke-dasharray:none"
         sodipodi:type="arc" />
      <path
         transform="translate(-1244.2869,-1206.4439)"
         d="m 334.84253,1465.1573 c 0,1.957 -1.58639,3.5434 -3.54331,3.5434 -1.95691,0 -3.5433,-1.5864 -3.5433,-3.5434 0,-1.9569 1.58639,-3.5433 3.5433,-3.5433 1.95692,0 3.54331,1.5864 3.54331,3.5433 z"
         sodipodi:ry="3.5433071"
         sodipodi:rx="3.5433071"
         sodipodi:cy="1465.1573"
         sodipodi:cx="331.29922"
         id="path4780-1"
         style="fill:none;stroke:#ff0000;stroke-width:0.35433072;stroke-miterlimit:4;stroke-opacity:1;stroke-dasharray:none"
         sodipodi:type="arc" />
      <path
         sodipodi:type="arc"
         style="fill:none;stroke:#ff0000;stroke-width:0.35433072;stroke-miterlimit:4;stroke-opacity:1;stroke-dasharray:none"
         id="path3541-9"
         sodipodi:cx="593.50397"
         sodipodi:cy="1727.3621"
         sodipodi:rx="44.29134"
         sodipodi:ry="44.29134"
         d="m 637.79531,1727.3621 c 0,24.4614 -19.82991,44.2913 -44.29134,44.2913 -24.46143,0 -44.29134,-19.8299 -44.29134,-44.2913 0,-24.4615 19.82991,-44.2914 44.29134,-44.2914 24.46143,0 44.29134,19.8299 44.29134,44.2914 z"
         transform="translate(-1279.72,-1256.0501)" />
      <path
         sodipodi:type="arc"
         style="fill:none;stroke:#ff0000;stroke-width:0.35433072;stroke-miterlimit:4;stroke-opacity:1;stroke-dasharray:none"
         id="path3541-1-0"
         sodipodi:cx="593.50397"
         sodipodi:cy="1727.3621"
         sodipodi:rx="44.29134"
         sodipodi:ry="44.29134"
         d="m 637.79531,1727.3621 c 0,24.4614 -19.82991,44.2913 -44.29134,44.2913 -24.46143,0 -44.29134,-19.8299 -44.29134,-44.2913 0,-24.4615 19.82991,-44.2914 44.29134,-44.2914 24.46143,0 44.29134,19.8299 44.29134,44.2914 z"
         transform="translate(-1616.3341,-1256.0501)" />
    </g>
    <g
       id="g3973"
       transform="matrix(0,-1,-1,0,2287.3377,167.59512)">
      <path
         inkscape:connector-curvature="0"
         id="rect3495"
         d="m -57.32285,471.33281 0,35.4376 -17.7187,0 -0.015,159.43856 c -0.001,10.6299 -10.6299,14.17315 -10.6299,24.80315 l 0,21.25984 c 0,10.6299 10.6289,14.17335 10.6299,24.80315 l 0.015,159.44533 17.7187,0 0,70.875 106.2812,0 0,-70.875 17.7188,0 c 0,-33.1385 12.8702,-37.0004 35.9062,-56.3126 40.6885,-32.4419 66.7812,-82.41563 66.7812,-138.50003 0,-55.0448 -25.1065,-104.2289 -64.5,-136.7187 -24.4835,-21.0512 -38.1874,-23.9901 -38.1874,-58.2187 l -17.7188,0 0,-35.4376 z"
         style="fill:none;stroke:#ff0000;stroke-width:0.7086615;stroke-miterlimit:4;stroke-opacity:1;stroke-dasharray:none"
         sodipodi:nodetypes="cccsssscccccccsccccc" />
      <path
         transform="matrix(0,1,-1,0,1882.6279,-338.30078)"
         d="m 1052.3621,1890.3542 c 0,6.8492 -5.5523,12.4016 -12.4015,12.4016 -6.8492,0 -12.4016,-5.5524 -12.4016,-12.4016 0,-6.8492 5.5524,-12.4015 12.4016,-12.4015 6.8492,0 12.4015,5.5523 12.4015,12.4015 z"
         sodipodi:ry="12.401575"
         sodipodi:rx="12.401575"
         sodipodi:cy="1890.3542"
         sodipodi:cx="1039.9606"
         id="path3583"
         style="fill:none;stroke:#ff0000;stroke-width:0.70866144;stroke-miterlimit:4;stroke-opacity:1;stroke-dasharray:none"
         sodipodi:type="arc" />
      <path
         transform="matrix(0,1,-1,0,1859.5963,-295.78121)"
         d="m 1002.7559,1837.2046 c 0,2.9354 -2.3796,5.315 -5.31498,5.315 -2.93537,0 -5.31496,-2.3796 -5.31496,-5.315 0,-2.9354 2.37959,-5.315 5.31496,-5.315 2.93538,0 5.31498,2.3796 5.31498,5.315 z"
         sodipodi:ry="5.3149605"
         sodipodi:rx="5.3149605"
         sodipodi:cy="1837.2046"
         sodipodi:cx="997.44092"
         id="path4474"
         style="fill:none;stroke:#ff0000;stroke-width:0.70866144;stroke-miterlimit:4;stroke-opacity:1;stroke-dasharray:none"
         sodipodi:type="arc" />
      <path
         transform="matrix(0,1,-1,0,1799.3601,-295.78121)"
         d="m 1002.7559,1837.2046 c 0,2.9354 -2.3796,5.315 -5.31498,5.315 -2.93537,0 -5.31496,-2.3796 -5.31496,-5.315 0,-2.9354 2.37959,-5.315 5.31496,-5.315 2.93538,0 5.31498,2.3796 5.31498,5.315 z"
         sodipodi:ry="5.3149605"
         sodipodi:rx="5.3149605"
         sodipodi:cy="1837.2046"
         sodipodi:cx="997.44092"
         id="path4474-3"
         style="fill:none;stroke:#ff0000;stroke-width:0.70866144;stroke-miterlimit:4;stroke-opacity:1;stroke-dasharray:none"
         sodipodi:type="arc" />
      <path
         transform="translate(-944.93817,-1020.4051)"
         d="m 885.82679,1722.0471 c 0,3.9138 -3.17279,7.0866 -7.08662,7.0866 -3.91383,0 -7.08661,-3.1728 -7.08661,-7.0866 0,-3.9138 3.17278,-7.0866 7.08661,-7.0866 3.91383,0 7.08662,3.1728 7.08662,7.0866 z"
         sodipodi:ry="7.0866141"
         sodipodi:rx="7.0866132"
         sodipodi:cy="1722.0471"
         sodipodi:cx="878.74017"
         id="path4221"
         style="fill:none;stroke:#ff0000;stroke-width:0.70866144;stroke-miterlimit:4;stroke-opacity:1;stroke-dasharray:none"
         sodipodi:type="arc" />
      <path
         transform="translate(-820.92235,-1020.4051)"
         d="m 885.82679,1722.0471 c 0,3.9138 -3.17279,7.0866 -7.08662,7.0866 -3.91383,0 -7.08661,-3.1728 -7.08661,-7.0866 0,-3.9138 3.17278,-7.0866 7.08661,-7.0866 3.91383,0 7.08662,3.1728 7.08662,7.0866 z"
         sodipodi:ry="7.0866141"
         sodipodi:rx="7.0866132"
         sodipodi:cy="1722.0471"
         sodipodi:cx="878.74017"
         id="path4221-9"
         style="fill:none;stroke:#ff0000;stroke-width:0.70866144;stroke-miterlimit:4;stroke-opacity:1;stroke-dasharray:none"
         sodipodi:type="arc" />
      <path
         transform="matrix(1.0526303,0,0,1.0526303,-1014.6842,-1107.9599)"
         d="m 954.92129,1613.0905 c 0,9.2953 -7.53537,16.8307 -16.83071,16.8307 -9.29535,0 -16.83071,-7.5354 -16.83071,-16.8307 0,-9.2954 7.53536,-16.8308 16.83071,-16.8308 9.29534,0 16.83071,7.5354 16.83071,16.8308 z"
         sodipodi:ry="16.830709"
         sodipodi:rx="16.830709"
         sodipodi:cy="1613.0905"
         sodipodi:cx="938.09058"
         id="path3976"
         style="fill:none;stroke:#ff0000;stroke-width:0.33661458;stroke-miterlimit:4;stroke-opacity:1;stroke-dasharray:none"
         sodipodi:type="arc" />
      <path
         transform="matrix(1.0526303,0,0,1.0526303,-968.62117,-1107.9599)"
         d="m 954.92129,1613.0905 c 0,9.2953 -7.53537,16.8307 -16.83071,16.8307 -9.29535,0 -16.83071,-7.5354 -16.83071,-16.8307 0,-9.2954 7.53536,-16.8308 16.83071,-16.8308 9.29534,0 16.83071,7.5354 16.83071,16.8308 z"
         sodipodi:ry="16.830709"
         sodipodi:rx="16.830709"
         sodipodi:cy="1613.0905"
         sodipodi:cx="938.09058"
         id="path3976-6"
         style="fill:none;stroke:#ff0000;stroke-width:0.33661458;stroke-miterlimit:4;stroke-opacity:1;stroke-dasharray:none"
         sodipodi:type="arc" />
      <path
         transform="matrix(1.0526303,0,0,1.0526303,-1014.6842,-1061.8969)"
         d="m 954.92129,1613.0905 c 0,9.2953 -7.53537,16.8307 -16.83071,16.8307 -9.29535,0 -16.83071,-7.5354 -16.83071,-16.8307 0,-9.2954 7.53536,-16.8308 16.83071,-16.8308 9.29534,0 16.83071,7.5354 16.83071,16.8308 z"
         sodipodi:ry="16.830709"
         sodipodi:rx="16.830709"
         sodipodi:cy="1613.0905"
         sodipodi:cx="938.09058"
         id="path3976-0"
         style="fill:none;stroke:#ff0000;stroke-width:0.33661458;stroke-miterlimit:4;stroke-opacity:1;stroke-dasharray:none"
         sodipodi:type="arc" />
      <path
         transform="matrix(1.0526303,0,0,1.0526303,-968.62117,-1061.8969)"
         d="m 954.92129,1613.0905 c 0,9.2953 -7.53537,16.8307 -16.83071,16.8307 -9.29535,0 -16.83071,-7.5354 -16.83071,-16.8307 0,-9.2954 7.53536,-16.8308 16.83071,-16.8308 9.29534,0 16.83071,7.5354 16.83071,16.8308 z"
         sodipodi:ry="16.830709"
         sodipodi:rx="16.830709"
         sodipodi:cy="1613.0905"
         sodipodi:cx="938.09058"
         id="path3976-03"
         style="fill:none;stroke:#ff0000;stroke-width:0.33661458;stroke-miterlimit:4;stroke-opacity:1;stroke-dasharray:none"
         sodipodi:type="arc" />
      <path
         transform="matrix(1.0526303,0,0,1.0526303,-1014.6842,-1154.0229)"
         d="m 954.92129,1613.0905 c 0,9.2953 -7.53537,16.8307 -16.83071,16.8307 -9.29535,0 -16.83071,-7.5354 -16.83071,-16.8307 0,-9.2954 7.53536,-16.8308 16.83071,-16.8308 9.29534,0 16.83071,7.5354 16.83071,16.8308 z"
         sodipodi:ry="16.830709"
         sodipodi:rx="16.830709"
         sodipodi:cy="1613.0905"
         sodipodi:cx="938.09058"
         id="path3976-3"
         style="fill:none;stroke:#ff0000;stroke-width:0.33661458;stroke-miterlimit:4;stroke-opacity:1;stroke-dasharray:none"
         sodipodi:type="arc" />
      <path
         transform="matrix(1.0526303,0,0,1.0526303,-968.62127,-1154.0229)"
         d="m 954.92129,1613.0905 c 0,9.2953 -7.53537,16.8307 -16.83071,16.8307 -9.29535,0 -16.83071,-7.5354 -16.83071,-16.8307 0,-9.2954 7.53536,-16.8308 16.83071,-16.8308 9.29534,0 16.83071,7.5354 16.83071,16.8308 z"
         sodipodi:ry="16.830709"
         sodipodi:rx="16.830709"
         sodipodi:cy="1613.0905"
         sodipodi:cx="938.09058"
         id="path3976-6-2"
         style="fill:none;stroke:#ff0000;stroke-width:0.33661458;stroke-miterlimit:4;stroke-opacity:1;stroke-dasharray:none"
         sodipodi:type="arc" />
      <path
         transform="matrix(1.0526303,0,0,1.0526303,-1014.6842,-884.7316)"
         d="m 954.92129,1613.0905 c 0,9.2953 -7.53537,16.8307 -16.83071,16.8307 -9.29535,0 -16.83071,-7.5354 -16.83071,-16.8307 0,-9.2954 7.53536,-16.8308 16.83071,-16.8308 9.29534,0 16.83071,7.5354 16.83071,16.8308 z"
         sodipodi:ry="16.830709"
         sodipodi:rx="16.830709"
         sodipodi:cy="1613.0905"
         sodipodi:cx="938.09058"
         id="path3976-67"
         style="fill:none;stroke:#ff0000;stroke-width:0.33661458;stroke-miterlimit:4;stroke-opacity:1;stroke-dasharray:none"
         sodipodi:type="arc" />
      <path
         transform="matrix(1.0526303,0,0,1.0526303,-968.62117,-884.7316)"
         d="m 954.92129,1613.0905 c 0,9.2953 -7.53537,16.8307 -16.83071,16.8307 -9.29535,0 -16.83071,-7.5354 -16.83071,-16.8307 0,-9.2954 7.53536,-16.8308 16.83071,-16.8308 9.29534,0 16.83071,7.5354 16.83071,16.8308 z"
         sodipodi:ry="16.830709"
         sodipodi:rx="16.830709"
         sodipodi:cy="1613.0905"
         sodipodi:cx="938.09058"
         id="path3976-6-7"
         style="fill:none;stroke:#ff0000;stroke-width:0.33661458;stroke-miterlimit:4;stroke-opacity:1;stroke-dasharray:none"
         sodipodi:type="arc" />
      <path
         transform="matrix(1.0526303,0,0,1.0526303,-1014.6842,-838.6686)"
         d="m 954.92129,1613.0905 c 0,9.2953 -7.53537,16.8307 -16.83071,16.8307 -9.29535,0 -16.83071,-7.5354 -16.83071,-16.8307 0,-9.2954 7.53536,-16.8308 16.83071,-16.8308 9.29534,0 16.83071,7.5354 16.83071,16.8308 z"
         sodipodi:ry="16.830709"
         sodipodi:rx="16.830709"
         sodipodi:cy="1613.0905"
         sodipodi:cx="938.09058"
         id="path3976-0-6"
         style="fill:none;stroke:#ff0000;stroke-width:0.33661458;stroke-miterlimit:4;stroke-opacity:1;stroke-dasharray:none"
         sodipodi:type="arc" />
      <path
         transform="matrix(1.0526303,0,0,1.0526303,-968.62117,-838.6686)"
         d="m 954.92129,1613.0905 c 0,9.2953 -7.53537,16.8307 -16.83071,16.8307 -9.29535,0 -16.83071,-7.5354 -16.83071,-16.8307 0,-9.2954 7.53536,-16.8308 16.83071,-16.8308 9.29534,0 16.83071,7.5354 16.83071,16.8308 z"
         sodipodi:ry="16.830709"
         sodipodi:rx="16.830709"
         sodipodi:cy="1613.0905"
         sodipodi:cx="938.09058"
         id="path3976-03-8"
         style="fill:none;stroke:#ff0000;stroke-width:0.33661458;stroke-miterlimit:4;stroke-opacity:1;stroke-dasharray:none"
         sodipodi:type="arc" />
      <path
         transform="matrix(1.0526303,0,0,1.0526303,-1014.6842,-930.7946)"
         d="m 954.92129,1613.0905 c 0,9.2953 -7.53537,16.8307 -16.83071,16.8307 -9.29535,0 -16.83071,-7.5354 -16.83071,-16.8307 0,-9.2954 7.53536,-16.8308 16.83071,-16.8308 9.29534,0 16.83071,7.5354 16.83071,16.8308 z"
         sodipodi:ry="16.830709"
         sodipodi:rx="16.830709"
         sodipodi:cy="1613.0905"
         sodipodi:cx="938.09058"
         id="path3976-3-2"
         style="fill:none;stroke:#ff0000;stroke-width:0.33661458;stroke-miterlimit:4;stroke-opacity:1;stroke-dasharray:none"
         sodipodi:type="arc" />
      <path
         transform="matrix(1.0526303,0,0,1.0526303,-968.62127,-930.7946)"
         d="m 954.92129,1613.0905 c 0,9.2953 -7.53537,16.8307 -16.83071,16.8307 -9.29535,0 -16.83071,-7.5354 -16.83071,-16.8307 0,-9.2954 7.53536,-16.8308 16.83071,-16.8308 9.29534,0 16.83071,7.5354 16.83071,16.8308 z"
         sodipodi:ry="16.830709"
         sodipodi:rx="16.830709"
         sodipodi:cy="1613.0905"
         sodipodi:cx="938.09058"
         id="path3976-6-2-1"
         style="fill:none;stroke:#ff0000;stroke-width:0.33661458;stroke-miterlimit:4;stroke-opacity:1;stroke-dasharray:none"
         sodipodi:type="arc" />
    </g>
    <g
       id="g3953"
       transform="matrix(0,-1,-1,0,2287.2715,702.68354)">
      <path
         inkscape:connector-curvature="0"
         id="rect3495-1"
         d="m 208.40805,471.32708 0,35.4376 -17.7187,0 -0.015,159.43856 c -0.001,10.6299 -10.6299,14.17315 -10.6299,24.80315 l 0,21.25984 c 0,10.6299 10.6289,14.17335 10.6299,24.80315 l 0.015,159.44533 17.7187,0 0,70.875 106.2812,0 0,-70.875 17.7188,0 c 0,-33.1385 12.8702,-37.0004 35.9062,-56.3126 40.6885,-32.4419 66.7812,-82.41563 66.7812,-138.50003 0,-55.0448 -25.1065,-104.2289 -64.5,-136.7187 -24.4835,-21.0512 -38.1874,-23.9901 -38.1874,-58.2187 l -17.7188,0 0,-35.4376 z"
         style="fill:none;stroke:#ff0000;stroke-width:0.7086615;stroke-miterlimit:4;stroke-opacity:1;stroke-dasharray:none"
         sodipodi:nodetypes="cccsssscccccccsccccc" />
      <path
         transform="matrix(0,1,-1,0,2148.3588,-338.30659)"
         d="m 1052.3621,1890.3542 c 0,6.8492 -5.5523,12.4016 -12.4015,12.4016 -6.8492,0 -12.4016,-5.5524 -12.4016,-12.4016 0,-6.8492 5.5524,-12.4015 12.4016,-12.4015 6.8492,0 12.4015,5.5523 12.4015,12.4015 z"
         sodipodi:ry="12.401575"
         sodipodi:rx="12.401575"
         sodipodi:cy="1890.3542"
         sodipodi:cx="1039.9606"
         id="path3583-1"
         style="fill:none;stroke:#ff0000;stroke-width:0.70866144;stroke-miterlimit:4;stroke-opacity:1;stroke-dasharray:none"
         sodipodi:type="arc" />
      <path
         transform="matrix(0,1,-1,0,2125.3272,-295.78694)"
         d="m 1002.7559,1837.2046 c 0,2.9354 -2.3796,5.315 -5.31498,5.315 -2.93537,0 -5.31496,-2.3796 -5.31496,-5.315 0,-2.9354 2.37959,-5.315 5.31496,-5.315 2.93538,0 5.31498,2.3796 5.31498,5.315 z"
         sodipodi:ry="5.3149605"
         sodipodi:rx="5.3149605"
         sodipodi:cy="1837.2046"
         sodipodi:cx="997.44092"
         id="path4474-0"
         style="fill:none;stroke:#ff0000;stroke-width:0.70866144;stroke-miterlimit:4;stroke-opacity:1;stroke-dasharray:none"
         sodipodi:type="arc" />
      <path
         transform="matrix(0,1,-1,0,2065.091,-295.78694)"
         d="m 1002.7559,1837.2046 c 0,2.9354 -2.3796,5.315 -5.31498,5.315 -2.93537,0 -5.31496,-2.3796 -5.31496,-5.315 0,-2.9354 2.37959,-5.315 5.31496,-5.315 2.93538,0 5.31498,2.3796 5.31498,5.315 z"
         sodipodi:ry="5.3149605"
         sodipodi:rx="5.3149605"
         sodipodi:cy="1837.2046"
         sodipodi:cx="997.44092"
         id="path4474-3-9"
         style="fill:none;stroke:#ff0000;stroke-width:0.70866144;stroke-miterlimit:4;stroke-opacity:1;stroke-dasharray:none"
         sodipodi:type="arc" />
      <path
         transform="translate(-679.20735,-1020.4108)"
         d="m 885.82679,1722.0471 c 0,3.9138 -3.17279,7.0866 -7.08662,7.0866 -3.91383,0 -7.08661,-3.1728 -7.08661,-7.0866 0,-3.9138 3.17278,-7.0866 7.08661,-7.0866 3.91383,0 7.08662,3.1728 7.08662,7.0866 z"
         sodipodi:ry="7.0866141"
         sodipodi:rx="7.0866132"
         sodipodi:cy="1722.0471"
         sodipodi:cx="878.74017"
         id="path4221-8"
         style="fill:none;stroke:#ff0000;stroke-width:0.70866144;stroke-miterlimit:4;stroke-opacity:1;stroke-dasharray:none"
         sodipodi:type="arc" />
      <path
         transform="translate(-555.19155,-1020.4108)"
         d="m 885.82679,1722.0471 c 0,3.9138 -3.17279,7.0866 -7.08662,7.0866 -3.91383,0 -7.08661,-3.1728 -7.08661,-7.0866 0,-3.9138 3.17278,-7.0866 7.08661,-7.0866 3.91383,0 7.08662,3.1728 7.08662,7.0866 z"
         sodipodi:ry="7.0866141"
         sodipodi:rx="7.0866132"
         sodipodi:cy="1722.0471"
         sodipodi:cx="878.74017"
         id="path4221-9-4"
         style="fill:none;stroke:#ff0000;stroke-width:0.70866144;stroke-miterlimit:4;stroke-opacity:1;stroke-dasharray:none"
         sodipodi:type="arc" />
      <path
         transform="matrix(1.0526303,0,0,1.0526303,-748.95335,-1107.9657)"
         d="m 954.92129,1613.0905 c 0,9.2953 -7.53537,16.8307 -16.83071,16.8307 -9.29535,0 -16.83071,-7.5354 -16.83071,-16.8307 0,-9.2954 7.53536,-16.8308 16.83071,-16.8308 9.29534,0 16.83071,7.5354 16.83071,16.8308 z"
         sodipodi:ry="16.830709"
         sodipodi:rx="16.830709"
         sodipodi:cy="1613.0905"
         sodipodi:cx="938.09058"
         id="path3976-5"
         style="fill:none;stroke:#ff0000;stroke-width:0.33661458;stroke-miterlimit:4;stroke-opacity:1;stroke-dasharray:none"
         sodipodi:type="arc" />
      <path
         transform="matrix(1.0526303,0,0,1.0526303,-702.89035,-1107.9657)"
         d="m 954.92129,1613.0905 c 0,9.2953 -7.53537,16.8307 -16.83071,16.8307 -9.29535,0 -16.83071,-7.5354 -16.83071,-16.8307 0,-9.2954 7.53536,-16.8308 16.83071,-16.8308 9.29534,0 16.83071,7.5354 16.83071,16.8308 z"
         sodipodi:ry="16.830709"
         sodipodi:rx="16.830709"
         sodipodi:cy="1613.0905"
         sodipodi:cx="938.09058"
         id="path3976-6-0"
         style="fill:none;stroke:#ff0000;stroke-width:0.33661458;stroke-miterlimit:4;stroke-opacity:1;stroke-dasharray:none"
         sodipodi:type="arc" />
      <path
         transform="matrix(1.0526303,0,0,1.0526303,-748.95335,-1061.9027)"
         d="m 954.92129,1613.0905 c 0,9.2953 -7.53537,16.8307 -16.83071,16.8307 -9.29535,0 -16.83071,-7.5354 -16.83071,-16.8307 0,-9.2954 7.53536,-16.8308 16.83071,-16.8308 9.29534,0 16.83071,7.5354 16.83071,16.8308 z"
         sodipodi:ry="16.830709"
         sodipodi:rx="16.830709"
         sodipodi:cy="1613.0905"
         sodipodi:cx="938.09058"
         id="path3976-0-63"
         style="fill:none;stroke:#ff0000;stroke-width:0.33661458;stroke-miterlimit:4;stroke-opacity:1;stroke-dasharray:none"
         sodipodi:type="arc" />
      <path
         transform="matrix(1.0526303,0,0,1.0526303,-702.89035,-1061.9027)"
         d="m 954.92129,1613.0905 c 0,9.2953 -7.53537,16.8307 -16.83071,16.8307 -9.29535,0 -16.83071,-7.5354 -16.83071,-16.8307 0,-9.2954 7.53536,-16.8308 16.83071,-16.8308 9.29534,0 16.83071,7.5354 16.83071,16.8308 z"
         sodipodi:ry="16.830709"
         sodipodi:rx="16.830709"
         sodipodi:cy="1613.0905"
         sodipodi:cx="938.09058"
         id="path3976-03-1"
         style="fill:none;stroke:#ff0000;stroke-width:0.33661458;stroke-miterlimit:4;stroke-opacity:1;stroke-dasharray:none"
         sodipodi:type="arc" />
      <path
         transform="matrix(1.0526303,0,0,1.0526303,-748.95335,-1154.0287)"
         d="m 954.92129,1613.0905 c 0,9.2953 -7.53537,16.8307 -16.83071,16.8307 -9.29535,0 -16.83071,-7.5354 -16.83071,-16.8307 0,-9.2954 7.53536,-16.8308 16.83071,-16.8308 9.29534,0 16.83071,7.5354 16.83071,16.8308 z"
         sodipodi:ry="16.830709"
         sodipodi:rx="16.830709"
         sodipodi:cy="1613.0905"
         sodipodi:cx="938.09058"
         id="path3976-3-4"
         style="fill:none;stroke:#ff0000;stroke-width:0.33661458;stroke-miterlimit:4;stroke-opacity:1;stroke-dasharray:none"
         sodipodi:type="arc" />
      <path
         transform="matrix(1.0526303,0,0,1.0526303,-702.89035,-1154.0287)"
         d="m 954.92129,1613.0905 c 0,9.2953 -7.53537,16.8307 -16.83071,16.8307 -9.29535,0 -16.83071,-7.5354 -16.83071,-16.8307 0,-9.2954 7.53536,-16.8308 16.83071,-16.8308 9.29534,0 16.83071,7.5354 16.83071,16.8308 z"
         sodipodi:ry="16.830709"
         sodipodi:rx="16.830709"
         sodipodi:cy="1613.0905"
         sodipodi:cx="938.09058"
         id="path3976-6-2-7"
         style="fill:none;stroke:#ff0000;stroke-width:0.33661458;stroke-miterlimit:4;stroke-opacity:1;stroke-dasharray:none"
         sodipodi:type="arc" />
      <path
         transform="matrix(1.0526303,0,0,1.0526303,-748.95335,-884.7374)"
         d="m 954.92129,1613.0905 c 0,9.2953 -7.53537,16.8307 -16.83071,16.8307 -9.29535,0 -16.83071,-7.5354 -16.83071,-16.8307 0,-9.2954 7.53536,-16.8308 16.83071,-16.8308 9.29534,0 16.83071,7.5354 16.83071,16.8308 z"
         sodipodi:ry="16.830709"
         sodipodi:rx="16.830709"
         sodipodi:cy="1613.0905"
         sodipodi:cx="938.09058"
         id="path3976-67-0"
         style="fill:none;stroke:#ff0000;stroke-width:0.33661458;stroke-miterlimit:4;stroke-opacity:1;stroke-dasharray:none"
         sodipodi:type="arc" />
      <path
         transform="matrix(1.0526303,0,0,1.0526303,-702.89035,-884.7374)"
         d="m 954.92129,1613.0905 c 0,9.2953 -7.53537,16.8307 -16.83071,16.8307 -9.29535,0 -16.83071,-7.5354 -16.83071,-16.8307 0,-9.2954 7.53536,-16.8308 16.83071,-16.8308 9.29534,0 16.83071,7.5354 16.83071,16.8308 z"
         sodipodi:ry="16.830709"
         sodipodi:rx="16.830709"
         sodipodi:cy="1613.0905"
         sodipodi:cx="938.09058"
         id="path3976-6-7-0"
         style="fill:none;stroke:#ff0000;stroke-width:0.33661458;stroke-miterlimit:4;stroke-opacity:1;stroke-dasharray:none"
         sodipodi:type="arc" />
      <path
         transform="matrix(1.0526303,0,0,1.0526303,-748.95335,-838.6744)"
         d="m 954.92129,1613.0905 c 0,9.2953 -7.53537,16.8307 -16.83071,16.8307 -9.29535,0 -16.83071,-7.5354 -16.83071,-16.8307 0,-9.2954 7.53536,-16.8308 16.83071,-16.8308 9.29534,0 16.83071,7.5354 16.83071,16.8308 z"
         sodipodi:ry="16.830709"
         sodipodi:rx="16.830709"
         sodipodi:cy="1613.0905"
         sodipodi:cx="938.09058"
         id="path3976-0-6-0"
         style="fill:none;stroke:#ff0000;stroke-width:0.33661458;stroke-miterlimit:4;stroke-opacity:1;stroke-dasharray:none"
         sodipodi:type="arc" />
      <path
         transform="matrix(1.0526303,0,0,1.0526303,-702.89035,-838.6744)"
         d="m 954.92129,1613.0905 c 0,9.2953 -7.53537,16.8307 -16.83071,16.8307 -9.29535,0 -16.83071,-7.5354 -16.83071,-16.8307 0,-9.2954 7.53536,-16.8308 16.83071,-16.8308 9.29534,0 16.83071,7.5354 16.83071,16.8308 z"
         sodipodi:ry="16.830709"
         sodipodi:rx="16.830709"
         sodipodi:cy="1613.0905"
         sodipodi:cx="938.09058"
         id="path3976-03-8-6"
         style="fill:none;stroke:#ff0000;stroke-width:0.33661458;stroke-miterlimit:4;stroke-opacity:1;stroke-dasharray:none"
         sodipodi:type="arc" />
      <path
         transform="matrix(1.0526303,0,0,1.0526303,-748.95335,-930.8004)"
         d="m 954.92129,1613.0905 c 0,9.2953 -7.53537,16.8307 -16.83071,16.8307 -9.29535,0 -16.83071,-7.5354 -16.83071,-16.8307 0,-9.2954 7.53536,-16.8308 16.83071,-16.8308 9.29534,0 16.83071,7.5354 16.83071,16.8308 z"
         sodipodi:ry="16.830709"
         sodipodi:rx="16.830709"
         sodipodi:cy="1613.0905"
         sodipodi:cx="938.09058"
         id="path3976-3-2-2"
         style="fill:none;stroke:#ff0000;stroke-width:0.33661458;stroke-miterlimit:4;stroke-opacity:1;stroke-dasharray:none"
         sodipodi:type="arc" />
      <path
         transform="matrix(1.0526303,0,0,1.0526303,-702.89035,-930.8004)"
         d="m 954.92129,1613.0905 c 0,9.2953 -7.53537,16.8307 -16.83071,16.8307 -9.29535,0 -16.83071,-7.5354 -16.83071,-16.8307 0,-9.2954 7.53536,-16.8308 16.83071,-16.8308 9.29534,0 16.83071,7.5354 16.83071,16.8308 z"
         sodipodi:ry="16.830709"
         sodipodi:rx="16.830709"
         sodipodi:cy="1613.0905"
         sodipodi:cx="938.09058"
         id="path3976-6-2-1-2"
         style="fill:none;stroke:#ff0000;stroke-width:0.33661458;stroke-miterlimit:4;stroke-opacity:1;stroke-dasharray:none"
         sodipodi:type="arc" />
    </g>
    <g
       id="g4145"
       transform="translate(2023.8391,-349.09325)">
      <path
         id="path4890"
         d="m -703.95726,878.81761 0,132.87499 120.48538,0.01 c 4.89228,4e-4 8.84375,-3.9827 8.84375,-8.875 l 0,-30.12499 -14.15625,0 0,14.1875 -44.3125,0 0,-14.1875 -53.14163,-0.01 0,-54.9063 3.54788,0.01 49.59375,0 0,-14.1874 44.3125,0 0,14.1874 14.15625,0 0,-30.125 c 0,-4.8922 -3.95146,-8.8437 -8.84375,-8.8437 z"
         style="fill:none;stroke:#ff0000;stroke-width:0.35433072;stroke-linecap:butt;stroke-linejoin:miter;stroke-miterlimit:4;stroke-opacity:1;stroke-dasharray:none"
         inkscape:connector-curvature="0"
         sodipodi:nodetypes="ccsscccccccccccccssc" />
      <path
         transform="translate(-1186.7255,-581.91225)"
         d="m 579.33072,1477.559 c 0,1.9569 -1.58639,3.5433 -3.54331,3.5433 -1.95691,0 -3.5433,-1.5864 -3.5433,-3.5433 0,-1.957 1.58639,-3.5433 3.5433,-3.5433 1.95692,0 3.54331,1.5863 3.54331,3.5433 z"
         sodipodi:ry="3.5433052"
         sodipodi:rx="3.5433071"
         sodipodi:cy="1477.559"
         sodipodi:cx="575.78741"
         id="path4896"
         style="fill:none;stroke:#ff0000;stroke-width:0.35433072;stroke-miterlimit:4;stroke-opacity:1;stroke-dasharray:none"
         sodipodi:type="arc" />
      <path
         transform="translate(-1145.9775,-585.45555)"
         d="m 538.58267,1580.3148 c 0,1.9569 -1.58639,3.5433 -3.5433,3.5433 -1.95692,0 -3.54331,-1.5864 -3.54331,-3.5433 0,-1.9569 1.58639,-3.5433 3.54331,-3.5433 1.95691,0 3.5433,1.5864 3.5433,3.5433 z"
         sodipodi:ry="3.5433071"
         sodipodi:rx="3.5433071"
         sodipodi:cy="1580.3148"
         sodipodi:cx="535.03937"
         id="path4918"
         style="fill:none;stroke:#ff0000;stroke-width:0.35433072;stroke-miterlimit:4;stroke-opacity:1;stroke-dasharray:none"
         sodipodi:type="arc" />
    </g>
    <g
       id="g4150"
       transform="translate(2502.1856,-349.09235)">
      <path
         sodipodi:nodetypes="ccsscccccccccccccccccssc"
         id="path4890-1"
         d="m -845.68951,878.81671 0,132.87499 120.4853,0.01 c 4.8923,3e-4 8.8437,-3.9827 8.8437,-8.875 l 0,-30.12499 -14.1562,0 0,14.1875 -14.1863,0.01 0,5.3149 -15.9449,0 0,-5.3149 -14.1813,-0.01 0,-14.1875 -53.1415,-0.01 0,-54.9063 3.5477,0.01 49.5938,0 0,-14.1874 44.3125,0 0,14.1874 14.1562,0 0,-30.125 c 0,-4.8922 -3.9514,-8.8437 -8.8437,-8.8437 z"
         style="fill:none;stroke:#ff0000;stroke-width:0.35433072;stroke-linecap:butt;stroke-linejoin:miter;stroke-miterlimit:4;stroke-opacity:1;stroke-dasharray:none"
         inkscape:connector-curvature="0" />
    </g>
    <g
       id="g4164"
       transform="translate(1882.1177,-189.63107)">
      <path
         inkscape:connector-curvature="0"
         id="path3578"
         d="m -1026.2324,940.43261 0,3.5433"
         style="fill:#000000;stroke:#000000;stroke-width:1px;stroke-linecap:butt;stroke-linejoin:miter;stroke-opacity:1" />
      <path
         inkscape:connector-curvature="0"
         id="path3580"
         d="m -1706.5473,940.43261 0,3.5433"
         style="fill:#000000;stroke:#000000;stroke-width:1px;stroke-linecap:butt;stroke-linejoin:miter;stroke-opacity:1" />
      <path
         d="m 552.75589,1504.1338 c 0,1.9569 -1.58639,3.5433 -3.5433,3.5433 -1.95692,0 -3.54331,-1.5864 -3.54331,-3.5433 0,-1.9569 1.58639,-3.5433 3.54331,-3.5433 1.95691,0 3.5433,1.5864 3.5433,3.5433 z"
         sodipodi:ry="3.5433071"
         sodipodi:rx="3.5433071"
         sodipodi:cy="1504.1338"
         sodipodi:cx="549.21259"
         id="path4706"
         style="fill:none;stroke:#ff0000;stroke-width:0.35433072;stroke-miterlimit:4;stroke-opacity:1;stroke-dasharray:none"
         sodipodi:type="arc"
         transform="translate(-1756.3302,-577.49486)" />
      <path
         d="m 552.75589,1504.1338 c 0,1.9569 -1.58639,3.5433 -3.5433,3.5433 -1.95692,0 -3.54331,-1.5864 -3.54331,-3.5433 0,-1.9569 1.58639,-3.5433 3.54331,-3.5433 1.95691,0 3.5433,1.5864 3.5433,3.5433 z"
         sodipodi:ry="3.5433071"
         sodipodi:rx="3.5433071"
         sodipodi:cy="1504.1338"
         sodipodi:cx="549.21259"
         id="path4706-0"
         style="fill:none;stroke:#ff0000;stroke-width:0.35433072;stroke-miterlimit:4;stroke-opacity:1;stroke-dasharray:none"
         sodipodi:type="arc"
         transform="translate(-2075.2278,-577.49486)" />
      <path
         transform="translate(-1697.8656,-558.00666)"
         d="m 391.53545,1459.8424 c 0,0.9785 -0.7932,1.7717 -1.77166,1.7717 -0.97845,0 -1.77165,-0.7932 -1.77165,-1.7717 0,-0.9785 0.7932,-1.7716 1.77165,-1.7716 0.97846,0 1.77166,0.7931 1.77166,1.7716 z"
         sodipodi:ry="1.7716535"
         sodipodi:rx="1.7716535"
         sodipodi:cy="1459.8424"
         sodipodi:cx="389.76379"
         id="path4604-2"
         style="fill:none;stroke:#ff0000;stroke-width:0.35433072;stroke-miterlimit:4;stroke-opacity:1;stroke-dasharray:none"
         sodipodi:type="arc" />
      <path
         transform="matrix(0,1,-1,0,134.02389,-754.66035)"
         d="m 1693.7008,1996.6534 c 0,2.9354 -2.3796,5.315 -5.3149,5.315 -2.9354,0 -5.315,-2.3796 -5.315,-5.315 0,-2.9353 2.3796,-5.3149 5.315,-5.3149 2.9353,0 5.3149,2.3796 5.3149,5.3149 z"
         sodipodi:ry="5.3149605"
         sodipodi:rx="5.3149605"
         sodipodi:cy="1996.6534"
         sodipodi:cx="1688.3859"
         id="path4250-9"
         style="fill:none;stroke:#ff0000;stroke-width:0.35433072;stroke-miterlimit:4;stroke-opacity:1;stroke-dasharray:none"
         sodipodi:type="arc" />
      <path
         transform="matrix(0,1,-1,0,233.23659,-740.4871)"
         d="m 1693.7008,1996.6534 c 0,2.9354 -2.3796,5.315 -5.3149,5.315 -2.9354,0 -5.315,-2.3796 -5.315,-5.315 0,-2.9353 2.3796,-5.3149 5.315,-5.3149 2.9353,0 5.3149,2.3796 5.3149,5.3149 z"
         sodipodi:ry="5.3149605"
         sodipodi:rx="5.3149605"
         sodipodi:cy="1996.6534"
         sodipodi:cx="1688.3859"
         id="path4250-0-2"
         style="fill:none;stroke:#ff0000;stroke-width:0.35433072;stroke-miterlimit:4;stroke-opacity:1;stroke-dasharray:none"
         sodipodi:type="arc" />
      <path
         inkscape:connector-curvature="0"
         id="path4321-75"
         d="m -1873.2594,923.09551 0,3.5433 124.0158,17.7165 0,-3.5433 z"
         style="fill:#000000;fill-opacity:1;stroke:#000000;stroke-width:0.35433072;stroke-linecap:butt;stroke-linejoin:miter;stroke-miterlimit:4;stroke-opacity:1;stroke-dasharray:none" />
      <path
         id="rect4728"
         d="m -1869.7052,878.81761 c -3.5433,0 -3.563,-0.013 -3.5625,3.5313 l 0,51.375 c 0,7.0866 5.3234,10.625 10.625,10.625 l 81.5,0 0,3.5624 c 0,9.8152 7.9038,17.7188 17.7188,17.7188 9.8149,0 17.7187,-7.9036 17.7187,-17.7188 l 0,-3.5624 53.875,0 c 1.8647,-1.1222 4.0406,-1.75 6.375,-1.75 2.3345,0 4.5104,0.6278 6.375,1.75 l 625.0312,0 c 1.8647,-1.1223 4.0406,-1.75 6.375,-1.75 2.3345,0 4.5104,0.6277 6.375,1.75 l 53.87497,0 0,3.5624 c 0,9.8151 7.90379,17.7188 17.71875,17.7188 9.81496,0 17.71875,-7.9037 17.71875,-17.7188 l 0,-3.5624 81.46872,0 c 5.3293,0 10.6563,-5.3086 10.6563,-10.625 l 0,-51.375 c 0,-3.5435 -0.019,-3.5313 -3.5625,-3.5313 l -8.8438,0 -111.62497,15.9375 -113.90622,0 c -1.5316,5.1114 -6.2651,8.8438 -11.875,8.8438 -5.6099,0 -10.3433,-3.7324 -11.875,-8.8438 l -220.2187,0 c -0.2408,-5e-4 -0.3424,4e-4 -0.5625,0 -0.1292,0.4336 -0.2326,0.8692 -0.4063,1.2812 -0.6259,1.4848 -1.5354,2.8168 -2.6562,3.9376 -1.1208,1.1207 -2.4528,2.0303 -3.9375,2.6562 -0.7424,0.3129 -1.535,0.5541 -2.3438,0.7188 -0.8087,0.1646 -1.6412,0.25 -2.5,0.25 l -24.7812,0 c -0.8588,0 -1.7225,-0.085 -2.5313,-0.25 -0.8087,-0.1647 -1.5701,-0.4059 -2.3125,-0.7188 -1.4847,-0.6259 -2.8167,-1.5355 -3.9375,-2.6562 -1.1208,-1.1208 -2.0303,-2.4528 -2.6562,-3.9376 -0.1737,-0.412 -0.2771,-0.8476 -0.4063,-1.2812 -0.2208,4e-4 -0.3218,-5e-4 -0.5625,0 l -220.2187,0 c -1.5316,5.1114 -6.2651,8.8438 -11.875,8.8438 -5.6099,0 -10.3433,-3.7324 -11.875,-8.8438 l -113.9062,0 -111.625,-15.9375 c -3.3134,6e-4 -5.5865,-10e-4 -8.8438,0 z"
         style="fill:none;stroke:#ff0000;stroke-width:0.35433069;stroke-miterlimit:4;stroke-opacity:1;stroke-dasharray:none"
         inkscape:connector-curvature="0" />
      <path
         transform="matrix(0,1,-1,0,134.02395,-797.18005)"
         d="m 1693.7008,1996.6534 c 0,2.9354 -2.3796,5.315 -5.3149,5.315 -2.9354,0 -5.315,-2.3796 -5.315,-5.315 0,-2.9353 2.3796,-5.3149 5.315,-5.3149 2.9353,0 5.3149,2.3796 5.3149,5.3149 z"
         sodipodi:ry="5.3149605"
         sodipodi:rx="5.3149605"
         sodipodi:cy="1996.6534"
         sodipodi:cx="1688.3859"
         id="path4250-5-4"
         style="fill:none;stroke:#ff0000;stroke-width:0.35433072;stroke-miterlimit:4;stroke-opacity:1;stroke-dasharray:none"
         sodipodi:type="arc" />
      <path
         transform="matrix(0,1,-1,0,233.23659,-783.00675)"
         d="m 1693.7008,1996.6534 c 0,2.9354 -2.3796,5.315 -5.3149,5.315 -2.9354,0 -5.315,-2.3796 -5.315,-5.315 0,-2.9353 2.3796,-5.3149 5.315,-5.3149 2.9353,0 5.3149,2.3796 5.3149,5.3149 z"
         sodipodi:ry="5.3149605"
         sodipodi:rx="5.3149605"
         sodipodi:cy="1996.6534"
         sodipodi:cx="1688.3859"
         id="path4250-0-5-9"
         style="fill:none;stroke:#ff0000;stroke-width:0.35433072;stroke-miterlimit:4;stroke-opacity:1;stroke-dasharray:none"
         sodipodi:type="arc" />
      <path
         inkscape:connector-curvature="0"
         id="path4321-7-4"
         d="m -1873.2593,880.57601 0,3.5433 124.0158,17.7165 0,-3.5433 z"
         style="fill:#000000;fill-opacity:1;stroke:#000000;stroke-width:0.35433072;stroke-linecap:butt;stroke-linejoin:miter;stroke-miterlimit:4;stroke-opacity:1;stroke-dasharray:none" />
      <path
         transform="matrix(0,-1,-1,0,1026.9374,2593.7649)"
         d="m 1693.7008,1996.6534 c 0,2.9354 -2.3796,5.315 -5.3149,5.315 -2.9354,0 -5.315,-2.3796 -5.315,-5.315 0,-2.9353 2.3796,-5.3149 5.315,-5.3149 2.9353,0 5.3149,2.3796 5.3149,5.3149 z"
         sodipodi:ry="5.3149605"
         sodipodi:rx="5.3149605"
         sodipodi:cy="1996.6534"
         sodipodi:cx="1688.3859"
         id="path4250-9-7"
         style="fill:none;stroke:#ff0000;stroke-width:0.35433072;stroke-miterlimit:4;stroke-opacity:1;stroke-dasharray:none"
         sodipodi:type="arc" />
      <path
         transform="matrix(0,-1,-1,0,1126.1499,2579.5918)"
         d="m 1693.7008,1996.6534 c 0,2.9354 -2.3796,5.315 -5.3149,5.315 -2.9354,0 -5.315,-2.3796 -5.315,-5.315 0,-2.9353 2.3796,-5.3149 5.315,-5.3149 2.9353,0 5.3149,2.3796 5.3149,5.3149 z"
         sodipodi:ry="5.3149605"
         sodipodi:rx="5.3149605"
         sodipodi:cy="1996.6534"
         sodipodi:cx="1688.3859"
         id="path4250-0-2-9"
         style="fill:none;stroke:#ff0000;stroke-width:0.35433072;stroke-miterlimit:4;stroke-opacity:1;stroke-dasharray:none"
         sodipodi:type="arc" />
      <path
         inkscape:connector-curvature="0"
         id="path4321-75-9"
         d="m -983.88938,901.83581 0,-3.5433 124.01577,-17.7165 0,3.5433 z"
         style="fill:#000000;fill-opacity:1;stroke:#000000;stroke-width:0.35433072;stroke-linecap:butt;stroke-linejoin:miter;stroke-miterlimit:4;stroke-opacity:1;stroke-dasharray:none" />
      <path
         transform="matrix(0,-1,-1,0,1026.9373,2636.2846)"
         d="m 1693.7008,1996.6534 c 0,2.9354 -2.3796,5.315 -5.3149,5.315 -2.9354,0 -5.315,-2.3796 -5.315,-5.315 0,-2.9353 2.3796,-5.3149 5.315,-5.3149 2.9353,0 5.3149,2.3796 5.3149,5.3149 z"
         sodipodi:ry="5.3149605"
         sodipodi:rx="5.3149605"
         sodipodi:cy="1996.6534"
         sodipodi:cx="1688.3859"
         id="path4250-5-4-7"
         style="fill:none;stroke:#ff0000;stroke-width:0.35433072;stroke-miterlimit:4;stroke-opacity:1;stroke-dasharray:none"
         sodipodi:type="arc" />
      <path
         transform="matrix(0,-1,-1,0,1126.1498,2622.1115)"
         d="m 1693.7008,1996.6534 c 0,2.9354 -2.3796,5.315 -5.3149,5.315 -2.9354,0 -5.315,-2.3796 -5.315,-5.315 0,-2.9353 2.3796,-5.3149 5.315,-5.3149 2.9353,0 5.3149,2.3796 5.3149,5.3149 z"
         sodipodi:ry="5.3149605"
         sodipodi:rx="5.3149605"
         sodipodi:cy="1996.6534"
         sodipodi:cx="1688.3859"
         id="path4250-0-5-9-6"
         style="fill:none;stroke:#ff0000;stroke-width:0.35433072;stroke-miterlimit:4;stroke-opacity:1;stroke-dasharray:none"
         sodipodi:type="arc" />
      <path
         inkscape:connector-curvature="0"
         id="path4321-7-4-8"
         d="m -983.88938,944.35551 0,-3.5433 124.01577,-17.7165 0,3.5433 z"
         style="fill:#000000;fill-opacity:1;stroke:#000000;stroke-width:0.35433072;stroke-linecap:butt;stroke-linejoin:miter;stroke-miterlimit:4;stroke-opacity:1;stroke-dasharray:none" />
      <path
         id="path3538-4-8-4"
         d="m -1127.0517,894.76601 c 1.652,8.0731 8.8136,14.1563 17.375,14.1563 8.5615,0 15.6918,-6.0832 17.3438,-14.1563 l -6.75,0 c -1.7418,4.1476 -5.8134,7.0626 -10.5938,7.0626 -4.7803,0 -8.8832,-2.915 -10.625,-7.0626 l -6.75,0 z"
         style="fill:#000000;fill-opacity:1;stroke:#000000;stroke-width:0.35433072;stroke-miterlimit:4;stroke-opacity:1;stroke-dasharray:none"
         inkscape:connector-curvature="0" />
      <path
         id="path3538-4-8"
         d="m -1640.8311,894.76601 c 1.6519,8.0731 8.8135,14.1563 17.375,14.1563 8.5614,0 15.6917,-6.0832 17.3437,-14.1563 l -6.75,0 c -1.7417,4.1476 -5.8134,7.0626 -10.5937,7.0626 -4.7804,0 -8.8833,-2.915 -10.625,-7.0626 l -6.75,0 z"
         style="fill:#000000;fill-opacity:1;stroke:#000000;stroke-width:0.35433072;stroke-miterlimit:4;stroke-opacity:1;stroke-dasharray:none"
         inkscape:connector-curvature="0" />
    </g>
    <g
       id="g3145"
       transform="translate(1770.2997,-237.38833)">
      <g
         transform="translate(1553.9414,53.0754)"
         id="g4153">
        <g
           id="g3948"
           transform="translate(-1341.1451,-0.02036945)">
          <path
             transform="translate(-811.7412,274.69595)"
             d="m 325.98424,646.6535 c 0,2.93538 -2.37959,5.31496 -5.31496,5.31496 -2.93537,0 -5.31496,-2.37958 -5.31496,-5.31496 0,-2.93537 2.37959,-5.31496 5.31496,-5.31496 2.93537,0 5.31496,2.37959 5.31496,5.31496 z"
             sodipodi:ry="5.3149605"
             sodipodi:rx="5.3149605"
             sodipodi:cy="646.6535"
             sodipodi:cx="320.66928"
             id="path3087-40-4-5-0"
             style="fill:none;stroke:#ff0000;stroke-width:0.70866144;stroke-miterlimit:4;stroke-opacity:1;stroke-dasharray:none"
             sodipodi:type="arc" />
          <path
             transform="translate(-493.4271,274.69595)"
             d="m 325.98424,646.6535 c 0,2.93538 -2.37959,5.31496 -5.31496,5.31496 -2.93537,0 -5.31496,-2.37958 -5.31496,-5.31496 0,-2.93537 2.37959,-5.31496 5.31496,-5.31496 2.93537,0 5.31496,2.37959 5.31496,5.31496 z"
             sodipodi:ry="5.3149605"
             sodipodi:rx="5.3149605"
             sodipodi:cy="646.6535"
             sodipodi:cx="320.66928"
             id="path3087-1-5-2-4"
             style="fill:none;stroke:#ff0000;stroke-width:0.70866144;stroke-miterlimit:4;stroke-opacity:1;stroke-dasharray:none"
             sodipodi:type="arc" />
          <path
             sodipodi:nodetypes="ssssccccccccsssscccccccccscs"
             inkscape:connector-curvature="0"
             id="rect4817-8"
             d="m -494.907,861.11809 c -7.8519,0 -14.1875,6.3043 -14.1875,14.15629 l 0,90.34371 c 0,7.8524 6.3356,14.1876 14.1875,14.1876 l 132.875,0 0,-31.90631 17.7188,0 0,31.90631 54.9084,0 0,-31.90631 17.7188,0 0,31.90631 102.7478,0 c 7.8519,2e-4 14.1875,-6.3352 14.1875,-14.1876 l 0,-90.34371 c 0,-7.85199 -6.3356,-14.15629 -14.1875,-14.15629 l -102.7478,-8e-4 0,31.875 -17.7188,0 0,-31.875 -54.9084,8e-4 0,31.87499 -17.7188,0 0,-31.87499 -17.2812,0 c -2.5975,3.2393 -6.5877,5.3126 -11.0625,5.3126 -4.4739,0 -8.465,-2.0744 -11.0625,-5.3126 z"
             style="fill:none;stroke:#ff0000;stroke-width:0.35433072;stroke-miterlimit:4;stroke-opacity:1;stroke-dasharray:none" />
        </g>
      </g>
    </g>
    <g
       id="g4191"
       transform="translate(2679.6427,104.45839)">
      <path
         transform="translate(-1494.1147,-131.02484)"
         d="m 325.98424,646.6535 c 0,2.93538 -2.37959,5.31496 -5.31496,5.31496 -2.93537,0 -5.31496,-2.37958 -5.31496,-5.31496 0,-2.93537 2.37959,-5.31496 5.31496,-5.31496 2.93537,0 5.31496,2.37959 5.31496,5.31496 z"
         sodipodi:ry="5.3149605"
         sodipodi:rx="5.3149605"
         sodipodi:cy="646.6535"
         sodipodi:cx="320.66928"
         id="path3087-40-4-5-00"
         style="fill:none;stroke:#ff0000;stroke-width:0.70866144;stroke-miterlimit:4;stroke-opacity:1;stroke-dasharray:none"
         sodipodi:type="arc" />
      <path
         d="m 246.25984,1541.3385 c 0,8.8061 -7.13877,15.9449 -15.94488,15.9449 -8.80612,0 -15.94488,-7.1388 -15.94488,-15.9449 0,-8.8061 7.13876,-15.9449 15.94488,-15.9449 8.80611,0 15.94488,7.1388 15.94488,15.9449 z"
         sodipodi:ry="15.944881"
         sodipodi:rx="15.944881"
         sodipodi:cy="1541.3385"
         sodipodi:cx="230.31496"
         id="path4894-8"
         style="fill:none;stroke:#ff0000;stroke-width:0.35433072;stroke-miterlimit:4;stroke-opacity:1;stroke-dasharray:none"
         sodipodi:type="arc"
         transform="translate(-1404.0521,-1025.7182)" />
    </g>
    <g
       id="g4195"
       transform="translate(2725.7056,49.537125)">
      <path
         transform="translate(-1538.406,-131.02483)"
         d="m 325.98424,646.6535 c 0,2.93538 -2.37959,5.31496 -5.31496,5.31496 -2.93537,0 -5.31496,-2.37958 -5.31496,-5.31496 0,-2.93537 2.37959,-5.31496 5.31496,-5.31496 2.93537,0 5.31496,2.37959 5.31496,5.31496 z"
         sodipodi:ry="5.3149605"
         sodipodi:rx="5.3149605"
         sodipodi:cy="646.6535"
         sodipodi:cx="320.66928"
         id="path3087-40-4-5-47"
         style="fill:none;stroke:#ff0000;stroke-width:0.70866144;stroke-miterlimit:4;stroke-opacity:1;stroke-dasharray:none"
         sodipodi:type="arc" />
      <path
         d="m 246.25984,1541.3385 c 0,8.8061 -7.13877,15.9449 -15.94488,15.9449 -8.80612,0 -15.94488,-7.1388 -15.94488,-15.9449 0,-8.8061 7.13876,-15.9449 15.94488,-15.9449 8.80611,0 15.94488,7.1388 15.94488,15.9449 z"
         sodipodi:ry="15.944881"
         sodipodi:rx="15.944881"
         sodipodi:cy="1541.3385"
         sodipodi:cx="230.31496"
         id="path4894-4"
         style="fill:none;stroke:#ff0000;stroke-width:0.35433072;stroke-miterlimit:4;stroke-opacity:1;stroke-dasharray:none"
         sodipodi:type="arc"
         transform="translate(-1448.3434,-1025.7182)" />
    </g>
    <g
       id="g4159"
       transform="translate(2938.0123,-265.8281)">
      <path
         transform="translate(-2175.9095,345.55829)"
         d="m 325.98424,646.6535 c 0,2.93538 -2.37959,5.31496 -5.31496,5.31496 -2.93537,0 -5.31496,-2.37958 -5.31496,-5.31496 0,-2.93537 2.37959,-5.31496 5.31496,-5.31496 2.93537,0 5.31496,2.37959 5.31496,5.31496 z"
         sodipodi:ry="5.3149605"
         sodipodi:rx="5.3149605"
         sodipodi:cy="646.6535"
         sodipodi:cx="320.66928"
         id="path3087-40-4-5-2"
         style="fill:none;stroke:#ff0000;stroke-width:0.70866144;stroke-miterlimit:4;stroke-opacity:1;stroke-dasharray:none"
         sodipodi:type="arc" />
      <path
         transform="translate(-1857.5953,345.55829)"
         d="m 325.98424,646.6535 c 0,2.93538 -2.37959,5.31496 -5.31496,5.31496 -2.93537,0 -5.31496,-2.37958 -5.31496,-5.31496 0,-2.93537 2.37959,-5.31496 5.31496,-5.31496 2.93537,0 5.31496,2.37959 5.31496,5.31496 z"
         sodipodi:ry="5.3149605"
         sodipodi:rx="5.3149605"
         sodipodi:cy="646.6535"
         sodipodi:cx="320.66928"
         id="path3087-1-5-2-3"
         style="fill:none;stroke:#ff0000;stroke-width:0.70866144;stroke-miterlimit:4;stroke-opacity:1;stroke-dasharray:none"
         sodipodi:type="arc" />
      <path
         sodipodi:nodetypes="ccccccccc"
         inkscape:connector-curvature="0"
         id="rect3730-1"
         d="m -1873.2485,976.25861 0,33.66139 56.693,0 c 3.5433,0 3.5462,-10.62779 7.0865,-10.62739 l 226.7717,0 c 3.5367,-4e-4 3.5434,10.62739 7.0867,10.62739 l 56.6928,0 0,-33.66139 z"
         style="fill:none;stroke:#ff0000;stroke-width:0.35433072;stroke-miterlimit:4;stroke-opacity:1" />
    </g>
    <g
       id="g3445"
       transform="matrix(0,0.62807953,-0.62807953,0,808.49586,17.62178)">
      <g
         transform="translate(-276.52473,-225.80333)"
         id="Layer_2" />
      <g
         transform="translate(-276.52473,-225.80333)"
         id="Layer_1">
        <g
           id="g6">
          <g
             id="text8"
             transform="translate(269.6543,393.7979)">
            <path
               id="path3020"
               style="font-size:124.51889801px;font-weight:bold;fill:#000000;fill-opacity:1;font-family:Eurostile"
               d="m 20.793683,-82.992332 0,11.612847 -13.9232555,0 0,-11.612847 13.9232555,0 m 0,24.8673 0,58.125032 -13.9232555,0 0,-58.125032 13.9232555,0"
               inkscape:connector-curvature="0" />
            <path
               id="path3022"
               style="font-size:124.51889801px;font-weight:bold;fill:#000000;fill-opacity:1;font-family:Eurostile"
               d="m 48.518594,-82.992332 0,11.612847 -13.923256,0 0,-11.612847 13.923256,0 m 0,24.8673 0,58.125032 -13.923256,0 0,-58.125032 13.923256,0"
               inkscape:connector-curvature="0" />
            <path
               id="path3024"
               style="font-size:124.51889801px;font-weight:bold;fill:#000000;fill-opacity:1;font-family:Eurostile"
               d="m 110.83884,-42.134569 -13.619251,0 c -0.08111,-0.486359 -0.141909,-0.85116 -0.182401,-1.094404 -0.283776,-2.796765 -1.094445,-4.539704 -2.43201,-5.228821 -1.29711,-0.68902 -4.478986,-1.033554 -9.545638,-1.033604 -7.255518,5e-5 -10.883262,2.35099 -10.883244,7.052828 -1.8e-5,3.202186 0.62825,5.107258 1.884808,5.715223 1.29705,0.608039 5.63413,1.09444 13.011252,1.459206 9.930663,0.486437 16.395744,1.803774 19.395274,3.952016 2.99943,2.148304 4.49916,6.546184 4.49922,13.193653 -6e-5,7.093372 -2.00646,12.018187 -6.01922,14.7744586 C 102.9753,-0.62826855 95.821143,0.72960219 85.485142,0.72960292 75.554415,0.72960219 68.765061,-0.50666819 65.11706,-2.9792119 61.46904,-5.4517497 59.645034,-10.072564 59.645038,-16.841667 l 0,-1.459206 14.470458,0 c -0.202686,0.810687 -0.324286,1.459222 -0.364801,1.945608 -0.567487,5.147765 3.404792,7.7216391 11.916847,7.7216305 8.79573,8.6e-6 13.19361,-2.5535995 13.193653,-7.6608305 -4.3e-5,-4.904532 -2.756318,-7.356806 -8.268833,-7.35683 -12.443806,2.4e-5 -20.65183,-1.175446 -24.624098,-3.526414 -3.931756,-2.350913 -5.897629,-7.235194 -5.897624,-14.652858 -5e-6,-6.647445 1.803734,-11.146659 5.411222,-13.497654 3.607467,-2.350885 10.538688,-3.526356 20.793683,-3.526414 9.687465,5.8e-5 16.193085,1.134995 19.516875,3.404813 3.36423,2.269929 5.04637,6.708342 5.04642,13.315253"
               inkscape:connector-curvature="0" />
          </g>
        </g>
        <g
           id="g14">
          <g
             id="g16">
            <path
               sodipodi:nodetypes="ccc"
               inkscape:connector-curvature="0"
               style="fill:none;stroke:#000000;stroke-width:4.77646542;stroke-miterlimit:10;stroke-opacity:1;stroke-dasharray:none"
               id="path18"
               d="m 378.841,294.444 c -20.651,14.963 -50.929,0.877 -65.294,-9.177 -5.892,-4.122 -8.007,-23.65 -2.816,-28.628"
               stroke-miterlimit="10" />
            <path
               inkscape:connector-curvature="0"
               style="fill:none;stroke:#000000;stroke-width:4.77646542;stroke-miterlimit:10;stroke-opacity:1;stroke-dasharray:none"
               id="path20"
               d="m 373.902,234.256 c -7.42,-8.71 -12.588,-7.527 -25.408,-5.513 -11.541,1.814 -6.817,1.625 -36.638,26.991 l 67.252,10.403 c 0,10e-4 1.429,-24.093 -5.206,-31.881 z"
               stroke-miterlimit="10" />
            <g
               transform="translate(0,-2)"
               id="g22">
              <path
                 inkscape:connector-curvature="0"
                 style="fill:none;stroke:#000000;stroke-width:3.18430996;stroke-miterlimit:10;stroke-dasharray:none"
                 id="path24"
                 d="m 365.636,284.122 c 0,5.056 -4.135,8.575 -9.237,7.857 -5.104,-0.716 -9.239,-5.398 -9.239,-10.453 0,-5.059 4.136,-8.578 9.239,-7.86 5.102,0.717 9.237,5.398 9.237,10.456 z"
                 stroke-miterlimit="10" />
              <path
                 inkscape:connector-curvature="0"
                 id="path26"
                 d="m 350.586,284.013 c 0,-1.884 1.462,-3.203 3.269,-2.95 1.808,0.254 3.27,1.985 3.27,3.869 0,1.879 -1.462,3.203 -3.27,2.947 -1.807,-0.253 -3.269,-1.987 -3.269,-3.866 z" />
              <path
                 inkscape:connector-curvature="0"
                 style="fill:none;stroke:#000000;stroke-width:3.18430996;stroke-miterlimit:10;stroke-dasharray:none"
                 id="path28"
                 d="m 336.186,278.228 c 0,5.056 -4.138,8.576 -9.239,7.859 -5.101,-0.717 -9.237,-5.399 -9.237,-10.456 0,-5.058 4.136,-8.576 9.237,-7.859 5.101,0.717 9.239,5.398 9.239,10.456 z"
                 stroke-miterlimit="10" />
              <path
                 inkscape:connector-curvature="0"
                 id="path30"
                 d="m 321.136,278.118 c 0,-1.883 1.462,-3.203 3.269,-2.95 1.807,0.255 3.27,1.986 3.27,3.869 0,1.88 -1.463,3.205 -3.27,2.95 -1.807,-0.252 -3.269,-1.988 -3.269,-3.869 z" />
            </g>
            <path
               inkscape:connector-curvature="0"
               style="fill:#f7941e;stroke:#003264;stroke-width:1.59215498;stroke-miterlimit:10"
               id="path32"
               d="M 378.841,266.21"
               stroke-miterlimit="10" />
            <path
               inkscape:connector-curvature="0"
               style="fill:none;stroke:#000000;stroke-width:4.77646542;stroke-miterlimit:10;stroke-opacity:1;stroke-dasharray:none"
               id="path34"
               d="m 374.84,235.555 c 3.619,2.961 7.875,12.454 8.814,17.13 5.485,27.314 5.179,32.074 -4.418,41.467 -7.823,7.656 -5.516,-16.139 0,-27.632 0.001,0.001 2.728,-26.02 -4.396,-30.965"
               stroke-miterlimit="10" />
          </g>
          <path
             inkscape:connector-curvature="0"
             style="fill:none;stroke:#000000;stroke-width:4.77646542;stroke-miterlimit:10;stroke-opacity:1;stroke-dasharray:none"
             id="path36"
             d="m 335.069,329.688 h 40.068 c 0,0 -6.049,-24.426 -12.484,-23.996 -13.279,0.885 -15.543,-2.203 -16.37,1.744 -3.459,16.521 -11.214,22.252 -11.214,22.252 z"
             stroke-miterlimit="10" />
        </g>
      </g>
      <g
         transform="translate(-276.52473,-225.80333)"
         id="Layer_3" />
    </g>
    <g
       transform="matrix(0,0.96129329,-0.96129329,0,1472.8968,303.05946)"
       id="layer1-7"
       inkscape:label="Layer 1"
       style="fill:#000000;stroke:#000000;stroke-width:1.0402652">
      <path
         transform="translate(282.85937,720.9157)"
         inkscape:connector-curvature="0"
         id="rect818"
         d="m -1,-1 0,82 82,0 0,-82 -82,0 z M 43.84375,0 80,0 80,13.375 C 70.61009,7.1207 57.45549,2.56013 43.84375,0 z m -28.0625,0.1875 c 20.83177,0.10011 46.06324,5.52404 60.75,14.71875 1.25642,0.78664 2.42211,1.68169 3.46875,2.65625 l 0,20.71875 C 63.17107,52.28211 16.41829,47.07541 1.28125,41.4375 22.78407,52.60057 59.90977,55.3261 80,48.03125 L 80,80 0,80 0,30.15625 C 21.53521,47.0392 68.99442,47.89674 77.0625,36 69.92592,40.96671 29.73099,45.47932 2.21875,26.96875 1.43812,26.4435 0.69544,25.87536 0,25.25 L 0,10.78125 C 10.75031,3.92037 36.57646,2.55481 55.125,9.3125 45.25732,5.07887 33.74892,3.08 23.21875,2.96875 22.88193,2.96505 22.55368,2.9375 22.21875,2.9375 13.59173,2.94651 5.67928,4.2595 0,6.6875 L 0,1.34375 C 4.73315,0.54776 10.08867,0.1602 15.78125,0.1875 z M 34.75,8.3125 C 27.48017,8.3899 21.17606,9.78864 17.96875,12.75 c 8.60659,-5.74915 35.23042,-3.10388 47.625,4.65625 3.2608,2.0412 5.31703,5.59888 4.8125,7.71875 -3.08554,12.94946 -35.17066,9.75634 -44.5,6.28125 17.86089,9.2727 56.14381,7.51707 47.625,-8.53125 C 68.69172,13.75696 50.2122,8.3279 35.4375,8.3125 c -0.2341,0 -0.45513,-0.004 -0.6875,0 z m 2.9375,4.84375 c -9.11962,0.0093 -16.35424,3.36444 -12.3125,9 7.11394,9.91872 32.14478,11.01196 36.03125,5.28125 -3.08571,2.14741 -20.47881,4.09793 -32.375,-3.90625 -1.94685,-1.30971 -3.37816,-3.4881 -2.9375,-4.75 1.67516,-4.79578 16.05793,-6.42809 25.8125,-2.875 -4.26672,-1.83018 -9.22804,-2.702 -13.78125,-2.75 l -0.4375,0 z M 12.5625,58.625 c -0.98263,0 -1.93175,0.22252 -2.84375,0.625 -0.89972,0.39099 -1.67617,0.94522 -2.375,1.65625 -0.69866,0.71052 -1.27327,1.59059 -1.6875,2.65625 -0.41486,1.0657 -0.625,2.21364 -0.625,3.46875 0,2.3921 0.63185,4.30561 1.875,5.75 1.25496,1.44504 3.00077,2.1875 5.25,2.1875 0.79321,0 1.50925,-0.09201 2.125,-0.28125 0.6274,-0.17767 1.27439,-0.56816 1.9375,-1.125 0.67475,-0.55685 1.29479,-1.29132 1.875,-2.25 -0.12979,-0.29626 -0.37149,-0.48395 -0.75,-0.53125 -0.55676,0.80512 -1.24951,1.44478 -2.03125,1.90625 -0.78173,0.44999 -1.55038,0.6875 -2.34375,0.6875 -1.40913,0 -2.58801,-0.68525 -3.5,-2 C 8.56903,70.0486 8.125,68.35746 8.125,66.25 c 0,-1.95389 0.39413,-3.51973 1.1875,-4.65625 0.80502,-1.14874 1.83099,-1.71875 3.0625,-1.71875 0.50941,0 0.93766,0.08402 1.28125,0.25 0.34359,0.1536 0.58419,0.39905 0.75,0.71875 0.17763,0.30792 0.3037,0.583 0.375,0.84375 0.07079,0.24888 0.1403,0.55828 0.1875,0.9375 0.09471,0.85246 0.53077,1.28125 1.3125,1.28125 0.42587,0 0.83227,-0.13389 1.1875,-0.40625 C 17.82398,63.21598 18,62.8293 18,62.34375 18,61.32539 17.50224,60.4408 16.53125,59.71875 15.56026,58.98428 14.23215,58.625 12.5625,58.625 z m 15.0625,0 c -0.98279,0 -1.93175,0.22252 -2.84375,0.625 -0.89972,0.39099 -1.70821,0.94522 -2.40625,1.65625 -0.69882,0.71052 -1.24219,1.59059 -1.65625,2.65625 -0.41486,1.0657 -0.625,2.21364 -0.625,3.46875 0,2.3921 0.63185,4.30561 1.875,5.75 1.2548,1.44504 3.00014,2.1875 5.25,2.1875 0.79337,0 1.50924,-0.09201 2.125,-0.28125 0.62756,-0.17767 1.27439,-0.56816 1.9375,-1.125 0.67476,-0.55685 1.29479,-1.29132 1.875,-2.25 -0.13027,-0.29626 -0.40195,-0.48395 -0.78125,-0.53125 -0.55676,0.80512 -1.21842,1.44478 -2,1.90625 -0.7811,0.44999 -1.55038,0.6875 -2.34375,0.6875 -1.40913,0 -2.58864,-0.68525 -3.5,-2 -0.90035,-1.3264 -1.34375,-3.01754 -1.34375,-5.125 0,-1.95389 0.39412,-3.51973 1.1875,-4.65625 0.80501,-1.14874 1.83099,-1.71875 3.0625,-1.71875 0.50894,0 0.93844,0.08402 1.28125,0.25 0.34359,0.1536 0.58403,0.39905 0.75,0.71875 0.17762,0.30792 0.3044,0.583 0.375,0.84375 0.07127,0.24888 0.1402,0.55828 0.1875,0.9375 0.09455,0.85246 0.53077,1.28125 1.3125,1.28125 0.42587,0 0.80118,-0.13389 1.15625,-0.40625 0.35524,-0.28402 0.5625,-0.6707 0.5625,-1.15625 0,-1.01836 -0.49776,-1.90295 -1.46875,-2.625 C 30.62339,58.98428 29.29466,58.625 27.625,58.625 z m 13.3125,0 c -1.45649,0 -2.68542,0.39847 -3.65625,1.15625 -0.95935,0.75791 -1.4375,1.71031 -1.4375,2.90625 0,0.67548 0.07622,1.2571 0.21875,1.71875 0.14206,0.46164 0.41438,0.86345 0.78125,1.21875 0.37915,0.35526 0.7728,0.66962 1.1875,0.90625 0.41424,0.22484 0.99234,0.51193 1.75,0.84375 1.40912,0.62749 2.39239,1.20033 2.9375,1.78125 0.5445,0.56786 0.8125,1.25724 0.8125,2.0625 0,0.81741 -0.34485,1.47155 -1.03125,1.96875 -0.68717,0.49721 -1.39125,0.75 -2.125,0.75 -0.60412,0 -1.15178,-0.09927 -1.625,-0.3125 -0.47369,-0.22498 -0.8455,-0.45818 -1.09375,-0.71875 -0.65147,-0.65157 -1.08753,-1.80335 -1.3125,-3.4375 L 35.375,69.5 c 0.16593,2.09597 0.25,3.8225 0.25,5.125 0.37915,-0.07043 0.65449,-0.125 0.84375,-0.125 0.28459,0 0.52153,0.0145 0.6875,0.0625 1.00607,0.25993 2.09772,0.40625 3.28125,0.40625 0.37915,0 0.78061,-0.0419 1.21875,-0.125 0.44979,-0.08295 0.94817,-0.22478 1.46875,-0.4375 0.52105,-0.22549 0.97258,-0.51192 1.375,-0.84375 0.41423,-0.33135 0.75908,-0.76731 1.03125,-1.3125 0.28396,-0.5562 0.4375,-1.18851 0.4375,-1.875 0,-0.69891 -0.14572,-1.31815 -0.40625,-1.875 -0.26052,-0.5562 -0.65465,-1.0538 -1.1875,-1.46875 -0.52042,-0.41425 -1.05723,-0.76641 -1.625,-1.0625 -0.56856,-0.29567 -1.26466,-0.59834 -2.09375,-0.90625 -0.99427,-0.35526 -1.69499,-0.74199 -2.0625,-1.15625 -0.35523,-0.4266 -0.53125,-1.01552 -0.53125,-1.75 0,-1.63351 0.96811,-2.4375 2.875,-2.4375 0.22497,0 0.47783,0.04991 0.75,0.15625 0.2846,0.0946 0.59391,0.26337 0.9375,0.5 0.35524,0.23731 0.69213,0.61614 1,1.125 0.31952,0.4972 0.5405,1.08234 0.71875,1.78125 l 1,-0.03125 C 45.26084,61.77005 45.11512,60.52643 44.9375,59.53125 43.76561,58.9272 42.44133,58.625 40.9375,58.625 z"
         style="color:#000000;fill:#000000;fill-opacity:1;fill-rule:evenodd;stroke:#000000;stroke-width:0.20805307;marker:none;visibility:visible;display:inline;overflow:visible;enable-background:accumulate" />
    </g>
  </g>
</svg>
